<svg width="216" height="180" viewBox="0 0 216 180" fill="none" xmlns="http://www.w3.org/2000/svg">
<path d="M193.83 164.588L177.21 152.85C182.815 147.397 187.913 139.634 192.789 130.855L209.408 142.593C202.767 150.125 197.142 157.516 193.83 164.588Z" fill="#E73D47"/>
<path d="M193.834 152.091C196.543 152.091 198.739 149.898 198.739 147.193C198.739 144.487 196.543 142.294 193.834 142.294C191.125 142.294 188.929 144.487 188.929 147.193C188.929 149.898 191.125 152.091 193.834 152.091Z" fill="white"/>
<path d="M113.658 111.024H111.834C111.77 111.024 111.708 111.049 111.663 111.095C111.618 111.14 111.592 111.201 111.592 111.265V112.065C111.592 112.097 111.599 112.128 111.611 112.158C111.623 112.187 111.641 112.213 111.663 112.236C111.686 112.258 111.712 112.276 111.742 112.288C111.771 112.3 111.802 112.307 111.834 112.307H112.136V113.505H113.356V112.307H113.658C113.723 112.307 113.784 112.281 113.829 112.236C113.875 112.191 113.9 112.129 113.9 112.065V111.265C113.9 111.201 113.875 111.14 113.829 111.095C113.784 111.049 113.723 111.024 113.658 111.024Z" fill="#E6E6E6"/>
<path d="M115.485 118.342C114.368 116.709 113.797 114.766 113.854 112.789C113.855 112.743 113.84 112.699 113.812 112.663C113.784 112.627 113.744 112.602 113.699 112.592V112.246H111.773V112.587H111.746C111.72 112.587 111.694 112.592 111.67 112.602C111.646 112.612 111.625 112.627 111.606 112.645C111.588 112.664 111.573 112.685 111.564 112.709C111.554 112.733 111.549 112.759 111.549 112.785C111.549 112.79 111.549 112.794 111.549 112.799C111.727 114.816 111.182 116.831 110.011 118.484C109.944 118.58 109.909 118.696 109.913 118.813L110.124 125.321C110.129 125.466 110.19 125.604 110.294 125.705C110.398 125.806 110.537 125.864 110.683 125.865H115.041C115.188 125.864 115.329 125.805 115.433 125.702C115.538 125.598 115.598 125.458 115.6 125.311L115.682 118.993C115.684 118.761 115.616 118.534 115.485 118.342Z" fill="#E73D47"/>
<path opacity="0.2" d="M113.278 111.284C113.278 111.423 113.223 111.555 113.125 111.653C113.028 111.751 112.895 111.805 112.756 111.805C112.618 111.805 112.485 111.751 112.387 111.653C112.29 111.555 112.235 111.423 112.235 111.284" fill="black"/>
<path d="M114.637 119.596H110.958V122.045H114.637V119.596Z" fill="white"/>
<path d="M171.39 136.447H167.975C167.855 136.447 167.739 136.494 167.655 136.579C167.57 136.664 167.522 136.779 167.522 136.899V138.395C167.522 138.515 167.57 138.63 167.655 138.715C167.739 138.8 167.855 138.848 167.975 138.848H168.541V141.09H170.824V138.848H171.39C171.51 138.848 171.625 138.8 171.71 138.715C171.795 138.63 171.842 138.515 171.842 138.395V136.899C171.842 136.779 171.795 136.664 171.71 136.579C171.625 136.494 171.51 136.447 171.39 136.447Z" fill="#E6E6E6"/>
<path d="M174.81 150.145C172.719 147.089 171.65 143.451 171.756 139.751C171.758 139.665 171.73 139.582 171.677 139.515C171.625 139.448 171.55 139.401 171.467 139.382V138.735H167.86V139.373H167.811C167.762 139.373 167.714 139.383 167.669 139.401C167.624 139.42 167.583 139.447 167.549 139.481C167.515 139.516 167.488 139.557 167.469 139.601C167.45 139.646 167.441 139.694 167.441 139.743C167.441 139.752 167.441 139.761 167.442 139.77C167.726 143.725 166.767 147.272 164.564 150.411C164.437 150.591 164.372 150.808 164.379 151.028L164.773 163.21C164.783 163.481 164.897 163.739 165.092 163.928C165.287 164.118 165.548 164.225 165.82 164.227H173.978C174.253 164.225 174.517 164.116 174.713 163.922C174.908 163.729 175.021 163.467 175.026 163.192L175.178 151.364C175.182 150.93 175.054 150.505 174.81 150.145Z" fill="#E73D47"/>
<path opacity="0.2" d="M170.678 136.934C170.678 137.193 170.575 137.441 170.392 137.624C170.209 137.807 169.96 137.91 169.701 137.91C169.442 137.91 169.194 137.807 169.01 137.624C168.827 137.441 168.724 137.193 168.724 136.934" fill="black"/>
<path d="M173.519 154.192H166.418C166.313 154.192 166.209 154.214 166.114 154.258C166.018 154.302 165.933 154.366 165.865 154.446C165.796 154.525 165.746 154.619 165.717 154.72C165.688 154.821 165.682 154.927 165.698 155.03L166.771 161.995H172.932L174.235 155.054C174.255 154.949 174.251 154.841 174.224 154.737C174.198 154.634 174.148 154.537 174.08 154.455C174.011 154.373 173.926 154.306 173.829 154.261C173.732 154.215 173.626 154.192 173.519 154.192Z" fill="white"/>
<path d="M161.646 164.569H141.29C142.713 156.885 142.386 147.607 141.29 137.629H161.646C160.58 147.607 160.261 156.885 161.646 164.569Z" fill="#E73D47"/>
<path d="M151.591 155.262C154.3 155.262 156.496 153.069 156.496 150.364C156.496 147.659 154.3 145.466 151.591 145.466C148.882 145.466 146.685 147.659 146.685 150.364C146.685 153.069 148.882 155.262 151.591 155.262Z" fill="white"/>
<path d="M78.3834 79.7841L82.9532 79.3693L85.8615 72.3169L80.6684 69.4128L78.3834 79.7841Z" fill="#FFB8B8"/>
<path d="M120.323 99.1451C120.475 98.7667 120.535 98.3576 120.497 97.9516C120.46 97.5456 120.326 97.1543 120.108 96.81C119.889 96.4656 119.592 96.1781 119.24 95.971C118.888 95.7639 118.492 95.6433 118.085 95.619L110.989 95.1965L109.944 98.6656L117.249 100.669C117.859 100.836 118.51 100.773 119.077 100.492C119.644 100.211 120.087 99.7318 120.323 99.1451Z" fill="#FFB8B8"/>
<path d="M112.704 100.727L112.626 94.2175L96.8656 91.7063L84.7241 77.8009C84.0924 77.0774 83.2195 76.6071 82.2671 76.477C81.3147 76.347 80.3474 76.566 79.5444 77.0936C79.0582 77.413 78.6482 77.8352 78.3433 78.3303C78.0385 78.8253 77.8462 79.3812 77.7802 79.9586C77.7141 80.5361 77.7759 81.1209 77.9611 81.6719C78.1463 82.2228 78.4505 82.7265 78.852 83.1471L88.8687 95.4567L112.704 100.727Z" fill="#E73D47"/>
<path d="M74.8522 173.956H79.0066L89.3112 127.433L99.9865 141.805L106.218 172.919H110.165L109.334 139.523L95.4166 103.846H81.707C77.9605 110.616 75.0215 117.596 78.3834 124.796L74.8522 173.956Z" fill="#2F2E41"/>
<path d="M103.671 176.782C103.625 176.929 103.611 177.084 103.63 177.236C103.649 177.389 103.7 177.536 103.78 177.667C103.86 177.799 103.967 177.912 104.094 177.998C104.221 178.085 104.365 178.144 104.517 178.171L114.683 179.973C115.084 180.046 115.499 179.97 115.849 179.759C116.198 179.548 116.458 179.217 116.58 178.828C116.699 178.456 116.682 178.054 116.533 177.693C116.385 177.332 116.113 177.035 115.767 176.854C113.532 175.708 111.608 174.038 110.161 171.987C109.044 173.026 107.795 172.928 106.469 172.162L105.062 172.338L103.671 176.782Z" fill="#2F2E41"/>
<path d="M72.9286 176.782C72.8827 176.929 72.8686 177.084 72.8873 177.236C72.906 177.389 72.957 177.536 73.037 177.667C73.117 177.799 73.2241 177.912 73.3512 177.998C73.4783 178.085 73.6224 178.144 73.774 178.171L83.94 179.973C84.3417 180.046 84.7564 179.97 85.1059 179.759C85.4554 179.548 85.7156 179.217 85.8374 178.828C85.9559 178.456 85.9394 178.054 85.7907 177.693C85.642 177.332 85.3707 177.035 85.0245 176.854C82.7892 175.708 80.8655 174.038 79.4181 171.987C78.3008 173.026 77.052 172.928 75.7259 172.162L74.3194 172.338L72.9286 176.782Z" fill="#2F2E41"/>
<path d="M85.9654 74.9096C89.1776 74.9096 91.7815 72.3093 91.7815 69.1017C91.7815 65.894 89.1776 63.2937 85.9654 63.2937C82.7532 63.2937 80.1492 65.894 80.1492 69.1017C80.1492 72.3093 82.7532 74.9096 85.9654 74.9096Z" fill="#FFB8B8"/>
<path d="M80.7721 105.402L95.9358 104.987L91.4825 90.9909C94.25 86.5606 91.4648 82.1348 87.523 77.71L84.4072 75.6357L79.4219 75.2208C77.2635 77.5272 76.0824 80.5781 76.1262 83.7345C76.2249 90.4936 77.4234 97.8515 80.7721 105.402Z" fill="#E73D47"/>
<path d="M115.611 114.822C115.9 114.534 116.116 114.181 116.242 113.793C116.367 113.405 116.399 112.993 116.333 112.591C116.268 112.188 116.108 111.807 115.866 111.479C115.624 111.15 115.308 110.884 114.943 110.701L108.586 107.525L106.259 110.304L112.185 115.015C112.68 115.409 113.303 115.607 113.935 115.571C114.567 115.536 115.164 115.269 115.611 114.822Z" fill="#FFB8B8"/>
<path d="M107.984 113.284L110.476 107.268L96.9759 98.7683L91.2913 81.2145C90.9955 80.3012 90.3783 79.5259 89.5539 79.0322C88.7295 78.5385 87.7539 78.3599 86.8078 78.5295C86.235 78.6321 85.6917 78.8592 85.2164 79.1946C84.7411 79.53 84.3454 79.9655 84.0572 80.4705C83.769 80.9754 83.5954 81.5374 83.5486 82.1167C83.5018 82.6959 83.5831 83.2784 83.7865 83.8229L88.1463 99.0749L107.984 113.284Z" fill="#E73D47"/>
<path d="M76.41 66.8199C76.41 69.0798 77.8798 72.5796 79.7336 74.0799C80.9809 75.0893 82.6293 75.0468 83.2648 73.665C83.9168 72.2476 86.1642 68.9158 90.1196 66.8199C95.3926 64.026 88.2497 59.2459 83.2648 59.9748C79.519 60.5225 76.41 63.0395 76.41 66.8199Z" fill="#2F2E41"/>
<path d="M79.9415 63.7086C82.236 63.7086 84.096 61.8512 84.096 59.56C84.096 57.2689 82.236 55.4115 79.9415 55.4115C77.6471 55.4115 75.7871 57.2689 75.7871 59.56C75.7871 61.8512 77.6471 63.7086 79.9415 63.7086Z" fill="#2F2E41"/>
<path d="M84.7189 58.108C84.7185 57.0621 84.3223 56.0551 83.6096 55.2886C82.897 54.5222 81.9206 54.053 80.8761 53.9752C80.9793 53.9675 81.0825 53.9595 81.1877 53.9595C82.2895 53.9595 83.3462 54.3966 84.1253 55.1746C84.9044 55.9526 85.3421 57.0078 85.3421 58.108C85.3421 59.2083 84.9044 60.2635 84.1253 61.0415C83.3462 61.8195 82.2895 62.2566 81.1877 62.2566C81.0825 62.2566 80.9793 62.2485 80.8761 62.2409C81.9206 62.163 82.897 61.6939 83.6096 60.9274C84.3223 60.161 84.7185 59.1539 84.7189 58.108Z" fill="#2F2E41"/>
<path d="M86.0689 71.1759C86.5851 71.1759 87.0036 70.6187 87.0036 69.9313C87.0036 69.244 86.5851 68.6868 86.0689 68.6868C85.5527 68.6868 85.1342 69.244 85.1342 69.9313C85.1342 70.6187 85.5527 71.1759 86.0689 71.1759Z" fill="#FFB8B8"/>
<path d="M203.777 166.348H139.106L125.411 101.7H113.723V98.7997H127.766L141.46 163.447H203.777V166.348Z" fill="#3F3D56"/>
<path d="M148.583 178.159C152.021 178.159 154.808 175.376 154.808 171.943C154.808 168.51 152.021 165.727 148.583 165.727C145.145 165.727 142.358 168.51 142.358 171.943C142.358 175.376 145.145 178.159 148.583 178.159Z" fill="#3F3D56"/>
<path d="M195.062 178.159C198.5 178.159 201.287 175.376 201.287 171.943C201.287 168.51 198.5 165.727 195.062 165.727C191.624 165.727 188.837 168.51 188.837 171.943C188.837 175.376 191.624 178.159 195.062 178.159Z" fill="#3F3D56"/>
<path d="M202.598 164.982H139.676L128.574 110.196H213.017C213.447 110.196 213.873 110.289 214.265 110.469C214.656 110.649 215.004 110.912 215.284 111.239C215.564 111.566 215.77 111.949 215.887 112.363C216.004 112.777 216.031 113.212 215.964 113.637L205.545 162.466C205.437 163.168 205.081 163.809 204.54 164.271C203.999 164.733 203.31 164.985 202.598 164.982ZM140.36 164.153H202.598C203.112 164.155 203.609 163.973 203.999 163.64C204.39 163.306 204.647 162.844 204.725 162.337L215.143 113.508C215.192 113.201 215.173 112.888 215.088 112.589C215.004 112.29 214.855 112.013 214.653 111.777C214.451 111.541 214.2 111.352 213.917 111.222C213.635 111.092 213.328 111.025 213.017 111.025H129.582L140.36 164.153Z" fill="#3F3D56"/>
<path d="M151.909 164.807L144.638 110.678L145.457 110.543L152.727 164.672L151.909 164.807Z" fill="#3F3D56"/>
<path d="M192.335 164.391L191.516 164.259L198.574 110.544L199.394 110.676L192.335 164.391Z" fill="#3F3D56"/>
<path d="M173.074 110.61H172.244V164.739H173.074V110.61Z" fill="#3F3D56"/>
<path d="M132.814 125.115L132.812 125.943L213.154 126.138L213.156 125.309L132.814 125.115Z" fill="#3F3D56"/>
<path d="M207.487 150.718L136.904 151.199L136.91 152.028L207.492 151.546L207.487 150.718Z" fill="#3F3D56"/>
<path d="M114.969 102.322C117.49 102.322 119.533 101.209 119.533 99.8356C119.533 98.4623 117.49 97.3491 114.969 97.3491C112.447 97.3491 110.404 98.4623 110.404 99.8356C110.404 101.209 112.447 102.322 114.969 102.322Z" fill="#3F3D56"/>
</svg>
