<svg width="216" height="179" viewBox="0 0 216 179" fill="none" xmlns="http://www.w3.org/2000/svg">
<path d="M154.312 40.5243H152.777C152.474 40.5243 152.229 40.7693 152.229 41.0716V61.6313C152.229 61.9336 152.474 62.1786 152.777 62.1786H154.312C154.614 62.1786 154.86 61.9336 154.86 61.6313V41.0716C154.86 40.7693 154.614 40.5243 154.312 40.5243Z" fill="#3F3D56"/>
<path d="M144.317 0H74.9633C69.8099 0 65.6323 4.17208 65.6323 9.3186V169.323C65.6323 174.469 69.8099 178.642 74.9633 178.642H144.317C149.47 178.642 153.648 174.469 153.648 169.323V9.3186C153.648 4.17208 149.47 0 144.317 0Z" fill="#3F3D56"/>
<path d="M141.398 4.65308H131.301V5.866C131.301 6.621 131.152 7.3686 130.863 8.06609C130.574 8.76357 130.149 9.39728 129.615 9.931C129.08 10.4647 128.445 10.888 127.747 11.1766C127.048 11.4653 126.299 11.6136 125.543 11.6132H93.4343C92.6783 11.6136 91.9296 11.4653 91.2311 11.1766C90.5325 10.888 89.8977 10.4647 89.363 9.931C88.8283 9.39728 88.4041 8.76357 88.1147 8.06609C87.8253 7.3686 87.6763 6.621 87.6763 5.866V4.65308H78.2233C76.3694 4.65308 74.5914 5.38857 73.2805 6.69775C71.9695 8.00693 71.2331 9.78256 71.2331 11.634V167.02C71.2331 168.871 71.9695 170.647 73.2805 171.956C74.5914 173.265 76.3694 174.001 78.2233 174.001H141.398C143.252 174.001 145.03 173.265 146.34 171.956C147.651 170.647 148.388 168.871 148.388 167.02V11.646C148.389 10.7282 148.21 9.81915 147.859 8.97081C147.509 8.12246 146.994 7.35148 146.345 6.70197C145.695 6.05246 144.924 5.53718 144.075 5.18561C143.227 4.83404 142.317 4.65307 141.398 4.65308Z" fill="white"/>
<path d="M112.515 5.33496H102.077C101.565 5.33496 101.15 5.74907 101.15 6.25989V6.90113C101.15 7.41195 101.565 7.82605 102.077 7.82605H112.515C113.026 7.82605 113.441 7.41195 113.441 6.90113V6.25989C113.441 5.74907 113.026 5.33496 112.515 5.33496Z" fill="#E6E8EC"/>
<path d="M116.717 7.99523C117.499 7.99523 118.133 7.36188 118.133 6.58059C118.133 5.79931 117.499 5.16595 116.717 5.16595C115.934 5.16595 115.3 5.79931 115.3 6.58059C115.3 7.36188 115.934 7.99523 116.717 7.99523Z" fill="#E6E8EC"/>
<path d="M110.178 108.142C119.373 108.142 126.828 100.697 126.828 91.5139C126.828 82.3306 119.373 74.886 110.178 74.886C100.982 74.886 93.5276 82.3306 93.5276 91.5139C93.5276 100.697 100.982 108.142 110.178 108.142Z" fill="white"/>
<path d="M132.077 89.1921C132.077 93.5875 130.772 97.8842 128.326 101.539C125.881 105.193 122.405 108.042 118.339 109.724C114.273 111.406 109.798 111.846 105.482 110.988C101.165 110.13 97.1998 108.014 94.0877 104.905C90.9756 101.797 88.8563 97.8373 87.9978 93.5263C87.1392 89.2153 87.5801 84.7468 89.2645 80.686C90.949 76.6251 93.8013 73.1543 97.461 70.7125C101.121 68.2706 105.423 66.9673 109.824 66.9675C112.747 66.9676 115.641 67.5425 118.34 68.6594C121.04 69.7764 123.493 71.4135 125.56 73.4772C127.626 75.5409 129.265 77.9909 130.383 80.6873C131.502 83.3837 132.077 86.2736 132.077 89.1921ZM107.252 100.956L123.759 84.4701C123.893 84.3371 123.999 84.179 124.071 84.005C124.144 83.8309 124.181 83.6444 124.181 83.4559C124.181 83.2675 124.144 83.0809 124.071 82.9069C123.999 82.7329 123.893 82.5748 123.759 82.4417L121.728 80.4282C121.595 80.2948 121.437 80.189 121.263 80.1169C121.089 80.0447 120.903 80.0075 120.714 80.0075C120.526 80.0075 120.339 80.0447 120.165 80.1169C119.991 80.189 119.833 80.2948 119.7 80.4282L106.237 93.8741L99.9502 87.5812C99.6803 87.3132 99.3152 87.1628 98.9346 87.1628C98.5541 87.1628 98.189 87.3132 97.9191 87.5812L95.888 89.6215C95.6197 89.891 95.469 90.2557 95.469 90.6357C95.469 91.0158 95.6197 91.3804 95.888 91.6499L105.221 100.968C105.355 101.101 105.513 101.207 105.687 101.279C105.861 101.351 106.048 101.388 106.237 101.388C106.426 101.388 106.612 101.351 106.787 101.279C106.961 101.207 107.119 101.101 107.252 100.968L107.252 100.956Z" fill="#E73D47"/>
<path d="M68.3881 35.2183H68.1576C67.8549 35.2183 67.6096 35.4633 67.6096 35.7656V41.0793C67.6096 41.3815 67.8549 41.6266 68.1576 41.6266H68.3881C68.6907 41.6266 68.9361 41.3815 68.9361 41.0793V35.7656C68.9361 35.4633 68.6907 35.2183 68.3881 35.2183Z" fill="#3F3D56"/>
<path d="M68.5082 46.9525H68.1095C67.8068 46.9525 67.5615 47.1975 67.5615 47.4998V57.5583C67.5615 57.8606 67.8068 58.1056 68.1095 58.1056H68.5082C68.8109 58.1056 69.0562 57.8606 69.0562 57.5583V47.4998C69.0562 47.1975 68.8109 46.9525 68.5082 46.9525Z" fill="#3F3D56"/>
<path d="M68.4601 62.0082H68.1334C67.8308 62.0082 67.5854 62.2533 67.5854 62.5555V72.7099C67.5854 73.0122 67.8308 73.2573 68.1334 73.2573H68.4601C68.7628 73.2573 69.0081 73.0122 69.0081 72.7099V62.5555C69.0081 62.2533 68.7628 62.0082 68.4601 62.0082Z" fill="#3F3D56"/>
<path d="M49.9554 91.7544C49.9934 91.7911 50.0422 91.8145 50.0947 91.8212C50.1471 91.8279 50.2003 91.8176 50.2464 91.7917C50.1481 91.7932 50.0501 91.7806 49.9554 91.7544Z" fill="url(#paint0_linear)"/>
<path d="M60.9551 96.0513L60.6679 97.6134L60.4463 98.8084L60.0433 100.994L56.1355 103.727C56.1355 103.727 55.7832 103.425 55.2022 102.951C53.6006 101.634 50.2346 98.9523 47.763 97.5128C47.1272 97.1081 46.4393 96.7916 45.7182 96.5719L60.9551 96.0513Z" fill="#FEB9B9"/>
<path d="M58.0883 97.2136C58.0883 97.2136 62.6447 97.9946 62.9115 96.0513C63.1784 94.108 60.5662 93.0579 58.3525 92.9271C56.1388 92.7964 42.8524 93.7082 42.8524 93.7082C42.8524 93.7082 40.5088 96.8297 48.973 97.3522L58.0883 97.2136Z" fill="#3F3D56"/>
<path d="M68.0526 33.0883H44.2165V61.3151H68.0526V33.0883Z" fill="#2F2E41"/>
<path opacity="0.1" d="M68.0526 33.2164H44.2165V61.4433H68.0526V33.2164Z" fill="black"/>
<path d="M16.2808 81.4088C15.8883 81.5075 15.3867 81.8868 14.8288 82.435C12.4266 84.8102 8.9859 90.3842 8.9859 90.3842C4.587 85.1513 9.45472 81.0168 11.5296 79.5959C12.0341 79.252 12.373 79.0627 12.373 79.0627L16.2808 81.4088Z" fill="#FEB9B9"/>
<path d="M60.6935 41.997C60.6935 41.997 61.8662 50.1914 65.9037 52.1425C69.9412 54.0937 60.6935 57.7404 60.6935 57.7404L48.0602 53.0541C48.0602 53.0541 55.2244 50.7119 53.7909 43.8175L60.6935 41.997Z" fill="#FEB9B9"/>
<path d="M47.1475 91.2958L46.8617 92.8526L46.6296 94.0522L46.2266 96.238L42.3188 98.9677C42.3188 98.9677 41.9665 98.6691 41.3854 98.1947C39.7839 96.8778 36.4181 94.1963 33.9426 92.7568C33.3072 92.3516 32.6192 92.035 31.8979 91.8158L47.1475 91.2958Z" fill="#FEB9B9"/>
<path d="M43.7671 93.2156C43.7671 93.2156 47.8563 93.2445 48.1023 91.2957C48.3483 89.3469 45.8738 88.3022 43.7671 88.1715C41.6604 88.0408 28.8603 89.0133 28.8603 89.0133C28.8603 89.0133 27.0443 92.6939 35.0957 93.2154L43.7671 93.2156Z" fill="#2F2E41"/>
<path d="M72.438 123.83C72.2592 123.742 72.0802 123.652 71.9041 123.564L71.4235 122.959L65.1216 114.978V115.116C65.079 116.449 64.6253 127.011 61.0858 127.986C57.3088 129.026 52.7525 129.287 50.6754 122.263C48.5984 115.239 44.8033 99.8901 40.906 98.9786L46.7035 94.2311C46.7035 94.2311 50.5419 98.7147 52.1058 103.006C52.0472 102.74 49.3965 90.3713 51.5719 88.1827H70.5917C70.5917 88.1827 73.5279 96.5344 75.5403 100.671C77.1071 103.884 79.4586 111.478 80.9728 116.617C82.4716 121.692 77.2052 126.173 72.438 123.83Z" fill="#3F3D56"/>
<path opacity="0.1" d="M71.8962 90.5146C68.96 92.25 56.0704 91.5435 51.8771 91.261L50.7346 91.1783C50.6118 91.1783 50.7532 91.109 50.7532 91.109L50.8707 89.9281L53.9965 81.995L70.7324 72.3026C70.3933 73.3236 70.2813 74.8857 70.3081 76.6744C70.3854 82.4216 71.8962 90.5146 71.8962 90.5146Z" fill="black"/>
<path d="M71.8962 90.123C68.96 91.8583 56.0704 91.1518 51.8771 90.8694L50.7346 90.7893L50.545 90.7733L50.7532 90.72L51.7835 90.4535L53.9962 81.6088L70.7322 71.9191C70.3933 72.9401 70.2811 74.5022 70.3079 76.2908C70.3854 82.0326 71.8962 90.123 71.8962 90.123Z" fill="#EFEFEF"/>
<path opacity="0.1" d="M70.2973 76.2854C66.894 77.069 59.4043 79.3684 56.5268 84.9221C54.6077 88.6194 52.9928 90.2054 51.8663 90.8691L50.7238 90.789C50.7313 90.7663 50.7375 90.7432 50.7425 90.7197L51.7727 90.4533L53.9855 81.6086L70.7214 71.9191C70.3864 72.9346 70.2705 74.4967 70.2973 76.2854Z" fill="black"/>
<path opacity="0.1" d="M12.373 79.0685L16.2808 81.409C15.8883 81.5077 15.3867 81.887 14.8288 82.4353C14.5031 81.4862 12.4596 80.1614 11.5296 79.5964C12.0338 79.2578 12.373 79.0685 12.373 79.0685Z" fill="black"/>
<path opacity="0.1" d="M50.0274 90.9413C49.9846 90.9636 49.9358 90.9719 49.888 90.9652C49.8402 90.9586 49.7956 90.9372 49.7606 90.904C49.8472 90.9293 49.9371 90.9419 50.0274 90.9413Z" fill="black"/>
<path d="M58.8707 51.6227C58.8707 51.6227 55.3527 52.0118 52.8784 49.4103C52.8784 49.4103 42.4681 52.4038 38.9425 59.1665C35.4168 65.9292 11.4494 79.199 11.4494 79.199C11.4494 79.199 15.6188 81.5395 15.2263 82.7096L30.988 73.6038C30.988 73.6038 36.5933 69.5733 38.1496 68.6617C39.7059 67.7502 48.3112 62.1576 50.1344 77.3759C51.9575 92.5942 50.1344 90.7735 50.1344 90.7735C50.1344 90.7735 52.7396 91.6853 56.5165 84.3998C60.2934 77.1144 72.014 75.4245 72.014 75.4245L72.6651 67.7526C72.6651 67.7526 74.9901 62.6664 73.1991 60.5553C72.6564 59.9303 72.2955 59.1688 72.1554 58.3534C71.8591 56.4049 72.1554 53.1581 76.3032 50.4605C82.6854 46.2966 85.1597 42.9167 85.1597 42.9167C85.1597 42.9167 85.2903 40.443 81.3828 39.2727C77.4752 38.1023 61.5852 31.7289 61.5852 31.7289L61.0513 33.9413L73.5887 42.7781C73.5887 42.7781 67.3375 47.8427 62.3781 47.7201C62.3778 47.7201 63.2987 51.492 58.8707 51.6227Z" fill="#BCB2C1"/>
<path opacity="0.1" d="M61.2834 45.5636C60.9754 44.5209 60.7347 43.4596 60.5629 42.3861L53.6602 44.2073C53.9645 45.5233 53.9102 46.8966 53.5028 48.1845C54.914 48.5606 56.405 48.5125 57.789 48.0463C59.173 47.5801 60.3886 46.7165 61.2834 45.5636Z" fill="black"/>
<path d="M55.5501 48.0456C59.6498 48.0456 62.9733 44.7266 62.9733 40.6323C62.9733 36.5381 59.6498 33.2191 55.5501 33.2191C51.4504 33.2191 48.127 36.5381 48.127 40.6323C48.127 44.7266 51.4504 48.0456 55.5501 48.0456Z" fill="#FEB9B9"/>
<path opacity="0.1" d="M63.6245 100.335C63.6245 100.335 67.9219 108.79 66.6193 111.389L63.6245 100.335Z" fill="black"/>
<path d="M59.4977 23.5106C61.5582 23.7453 63.5148 24.6275 65.5435 25.11C66.0506 25.2674 66.5903 25.2876 67.1077 25.1686C67.8951 24.926 68.5357 24.1024 69.3525 24.1263C69.8551 24.1423 70.3 24.4836 70.7138 24.8113C71.3772 25.3184 72.0018 25.8744 72.5821 26.4747C73.9807 27.9914 74.8482 30.0334 76.124 31.6835C77.3998 33.3335 79.2193 35.2685 81.0317 34.5118C79.7987 39.3099 75.9531 42.3115 71.5839 42.6103C69.841 42.7298 68.0552 42.3677 66.3682 42.8768C65.9481 43.0488 65.5043 43.1566 65.052 43.1965C64.0804 43.1965 63.2983 42.3063 62.6923 41.4399C61.2722 39.4034 60.1486 37.0923 58.5497 35.2343C58.0158 34.6186 57.3993 34.0347 56.6519 33.9229C55.9046 33.811 55.2187 34.1681 54.5541 34.512C53.457 35.0799 52.3361 35.6661 51.4846 36.6446C50.6331 37.6231 50.0966 39.0676 50.4488 40.3766C50.6384 41.0857 51.0711 41.7255 51.0787 42.4664C51.0947 43.6499 50.0484 44.5137 49.8429 45.6652C49.7965 46.1489 49.7795 46.6349 49.7921 47.1207C49.7014 48.6981 48.6674 49.9887 47.5904 50.9832C47.1687 51.367 46.7049 51.7828 46.5815 52.3772C46.4987 52.785 46.5815 53.2137 46.5281 53.6274C46.3706 54.6511 45.3483 55.1709 44.4434 55.3043C43.3862 55.4606 42.3063 55.3327 41.315 54.9338C42.5803 54.3363 43.3598 52.6361 43.0661 51.1139C42.6631 49.0026 40.5385 47.4859 40.7208 45.3375C40.8207 44.6783 41.0186 44.0377 41.3081 43.437C41.7711 42.276 42.1076 41.0686 42.3118 39.8357C42.4719 38.884 42.5494 37.8738 42.2503 36.9649C41.9835 36.1384 41.4256 35.4802 40.953 34.7816C40.3125 33.8312 39.8068 32.7969 39.4503 31.7081C39.3211 31.3851 39.2718 31.0357 39.3067 30.6897C39.4137 30.281 39.6417 29.914 39.9607 29.6367C41.1219 28.4178 42.363 27.1523 43.9193 26.8031C44.6618 26.68 45.417 26.6513 46.1667 26.7178C47.4707 26.7586 48.7759 26.7033 50.0717 26.5524C51.1393 26.4271 52.9435 26.4431 53.8486 25.7527C54.6919 25.1074 55.1672 24.2972 56.2054 23.8868C57.2568 23.4976 58.3869 23.3686 59.4991 23.5109L59.4977 23.5106Z" fill="#2F2E41"/>
<defs>
<linearGradient id="paint0_linear" x1="50.1023" y1="91.8237" x2="50.1023" y2="91.7544" gradientUnits="userSpaceOnUse">
<stop stop-color="#808080" stop-opacity="0.251"/>
<stop offset="0.54" stop-color="#808080" stop-opacity="0.122"/>
<stop offset="1" stop-color="#808080" stop-opacity="0.102"/>
</linearGradient>
</defs>
</svg>
