<svg width="85" height="69" viewBox="0 0 85 69" fill="none" xmlns="http://www.w3.org/2000/svg">
<path d="M21.0473 60.3184V56.8802C21.0676 56.591 21.0253 56.3009 20.9234 56.0292C20.8215 55.7574 20.6622 55.5103 20.4562 55.3043C20.2502 55.0982 20.0022 54.938 19.7287 54.8342C19.4553 54.7305 19.1626 54.6856 18.8702 54.7026C18.4875 54.6778 18.1051 54.7551 17.7629 54.9264C17.4207 55.0978 17.1312 55.3569 16.9247 55.6768C16.7365 55.3665 16.4672 55.1123 16.1452 54.9408C15.8231 54.7694 15.4603 54.6871 15.095 54.7026C14.7766 54.6867 14.4594 54.7534 14.1751 54.8961C13.8907 55.0388 13.6489 55.2526 13.4738 55.5163V54.8401H12.2694V60.3184H13.4853V57.3042C13.4595 57.1169 13.4758 56.9262 13.533 56.7458C13.5903 56.5654 13.6871 56.3998 13.8165 56.2607C13.946 56.1216 14.1048 56.0126 14.2818 55.9414C14.4588 55.8702 14.6495 55.8385 14.8403 55.8487C15.6393 55.8487 16.0446 56.3644 16.0446 57.2928V60.3413H17.2606V57.3042C17.2357 57.1171 17.2528 56.9268 17.3104 56.7469C17.368 56.5669 17.4649 56.4017 17.5941 56.2629C17.7233 56.1241 17.8818 56.015 18.0583 55.9435C18.2348 55.8719 18.425 55.8395 18.6155 55.8487C19.4377 55.8487 19.8314 56.3644 19.8314 57.2928V60.3413L21.0473 60.3184ZM39.0375 54.8401H37.0572V53.1783H35.8413V54.8401H34.7411V55.9289H35.8644V58.4503C35.8644 59.7224 36.3624 60.4789 37.7868 60.4789C38.3189 60.4806 38.8408 60.3336 39.2922 60.0548L38.9448 59.0348C38.6218 59.2255 38.2553 59.3319 37.8794 59.3442C37.3004 59.3442 37.0804 58.9775 37.0804 58.4274V55.9289H39.049L39.0375 54.8401ZM49.3093 54.7026C49.0156 54.6941 48.7251 54.7641 48.4683 54.9053C48.2115 55.0465 47.9979 55.2536 47.8501 55.5049V54.8401H46.6574V60.3184H47.8617V57.2469C47.8617 56.3415 48.2554 55.8372 49.0198 55.8372C49.2774 55.8337 49.5331 55.8805 49.7725 55.9748L50.143 54.8287C49.868 54.7313 49.5782 54.6809 49.2861 54.6797L49.3093 54.7026ZM33.78 55.2756C33.0982 54.8745 32.3144 54.6756 31.5218 54.7026C30.1206 54.7026 29.2057 55.3673 29.2057 56.4561C29.2057 57.3501 29.8774 57.9002 31.1165 58.0721L31.6955 58.1523C32.3556 58.244 32.6683 58.4159 32.6683 58.7254C32.6683 59.1494 32.2282 59.3901 31.406 59.3901C30.7446 59.409 30.0961 59.2072 29.5647 58.817L28.9857 59.7454C29.6872 60.2302 30.5275 60.4792 31.3828 60.4559C32.9809 60.4559 33.9074 59.711 33.9074 58.668C33.9074 57.6251 33.1778 57.2011 31.9734 57.0291L31.3944 56.9489C30.8733 56.8802 30.4564 56.777 30.4564 56.4103C30.4564 56.0435 30.8501 55.7685 31.5102 55.7685C32.1203 55.7755 32.7184 55.9373 33.2473 56.2384L33.78 55.2756ZM66.0371 54.7026C65.7435 54.6941 65.4529 54.7641 65.1961 54.9053C64.9394 55.0465 64.7258 55.2536 64.578 55.5049V54.8401H63.3852V60.3184H64.5896V57.2469C64.5896 56.3415 64.9833 55.8372 65.7476 55.8372C66.0052 55.8337 66.261 55.8805 66.5003 55.9748L66.8709 54.8287C66.5959 54.7313 66.3061 54.6809 66.014 54.6797L66.0371 54.7026ZM50.5194 57.5678C50.5051 57.9528 50.5721 58.3365 50.7162 58.6944C50.8603 59.0522 51.0784 59.3764 51.3563 59.6461C51.6343 59.9158 51.9661 60.1251 52.3304 60.2606C52.6948 60.3961 53.0838 60.4548 53.4724 60.433C54.1955 60.4694 54.9062 60.2364 55.4642 59.7798L54.8852 58.817C54.4689 59.1312 53.9612 59.3041 53.4377 59.3099C52.9925 59.2742 52.5772 59.074 52.2744 58.7491C51.9716 58.4242 51.8034 57.9984 51.8034 57.5564C51.8034 57.1143 51.9716 56.6885 52.2744 56.3636C52.5772 56.0387 52.9925 55.8385 53.4377 55.8028C53.9612 55.8086 54.4689 55.9815 54.8852 56.2957L55.4642 55.3329C54.9062 54.8763 54.1955 54.6433 53.4724 54.6797C53.0838 54.6579 52.6948 54.7166 52.3304 54.8521C51.9661 54.9876 51.6343 55.1969 51.3563 55.4666C51.0784 55.7363 50.8603 56.0605 50.7162 56.4183C50.5721 56.7762 50.5051 57.1599 50.5194 57.5449V57.5678ZM61.7987 57.5678V54.8401H60.5943V55.5049C60.3898 55.2444 60.1256 55.0358 59.8236 54.8963C59.5216 54.7568 59.1904 54.6904 58.8573 54.7026C58.0895 54.7026 57.3531 55.0045 56.8101 55.5418C56.2672 56.0791 55.9622 56.8079 55.9622 57.5678C55.9622 58.3277 56.2672 59.0565 56.8101 59.5938C57.3531 60.1312 58.0895 60.433 58.8573 60.433C59.1904 60.4452 59.5216 60.3788 59.8236 60.2393C60.1256 60.0998 60.3898 59.8912 60.5943 59.6308V60.2955H61.7987V57.5678ZM57.3171 57.5678C57.3363 57.2453 57.4504 56.9355 57.6453 56.6764C57.8402 56.4172 58.1074 56.2202 58.414 56.1095C58.7206 55.9988 59.0533 55.9792 59.371 56.0532C59.6887 56.1272 59.9776 56.2916 60.2021 56.5261C60.4267 56.7605 60.577 57.0549 60.6346 57.3728C60.6923 57.6908 60.6547 58.0184 60.5265 58.3155C60.3984 58.6126 60.1852 58.8661 59.9133 59.0448C59.6414 59.2235 59.3226 59.3196 58.9963 59.3213C58.767 59.3242 58.5396 59.2801 58.3284 59.1918C58.1172 59.1034 57.9268 58.9728 57.7691 58.8081C57.6113 58.6434 57.4898 58.4482 57.412 58.2348C57.3342 58.0213 57.3019 57.7942 57.3171 57.5678ZM42.7837 54.7026C42.0159 54.7132 41.2838 55.0253 40.7484 55.5702C40.2131 56.115 39.9184 56.848 39.9292 57.6079C39.9399 58.3678 40.2552 59.0924 40.8058 59.6222C41.3563 60.152 42.097 60.4437 42.8648 60.433C43.6978 60.4753 44.5171 60.2098 45.1635 59.6881L44.5845 58.8056C44.1273 59.1685 43.5608 59.3701 42.9748 59.3786C42.5767 59.4125 42.1809 59.2914 41.8717 59.0409C41.5624 58.7905 41.3641 58.4306 41.3188 58.0377H45.4298C45.4298 57.8887 45.4298 57.7397 45.4298 57.5793C45.4298 55.8601 44.3529 54.7141 42.8011 54.7141L42.7837 54.7026ZM42.7837 55.7685C42.9639 55.7647 43.1431 55.796 43.3111 55.8608C43.4791 55.9255 43.6325 56.0224 43.7626 56.1459C43.8928 56.2693 43.997 56.417 44.0695 56.5803C44.1419 56.7437 44.1812 56.9196 44.1849 57.0979H41.2898C41.3108 56.7301 41.4765 56.3849 41.7514 56.1365C42.0262 55.888 42.3885 55.7559 42.7606 55.7685H42.7837ZM72.9564 57.5793V52.6396H71.7984V55.5049C71.5938 55.2444 71.3297 55.0358 71.0276 54.8963C70.7256 54.7568 70.3944 54.6904 70.0613 54.7026C69.2935 54.7026 68.5571 55.0045 68.0142 55.5418C67.4712 56.0791 67.1662 56.8079 67.1662 57.5678C67.1662 58.3277 67.4712 59.0565 68.0142 59.5938C68.5571 60.1312 69.2935 60.433 70.0613 60.433C70.3944 60.4452 70.7256 60.3788 71.0276 60.2393C71.3297 60.0998 71.5938 59.8912 71.7984 59.6308V60.2955H72.9564V57.5793ZM74.9656 59.5219C75.0409 59.521 75.1156 59.5346 75.1856 59.562C75.2521 59.5889 75.313 59.6277 75.3651 59.6766C75.416 59.726 75.4572 59.7843 75.4867 59.8485C75.516 59.9154 75.5312 59.9876 75.5312 60.0605C75.5312 60.1335 75.516 60.2056 75.4867 60.2726C75.4572 60.3368 75.416 60.3951 75.3651 60.4445C75.313 60.4934 75.2521 60.5322 75.1856 60.5591C75.1163 60.5894 75.0414 60.605 74.9656 60.6049C74.8558 60.6041 74.7486 60.5724 74.6563 60.5136C74.564 60.4547 74.4906 60.3712 74.4445 60.2726C74.4155 60.2056 74.4006 60.1334 74.4006 60.0605C74.4006 59.9877 74.4155 59.9155 74.4445 59.8485C74.474 59.7843 74.5152 59.726 74.5661 59.6766C74.6182 59.6277 74.6791 59.5889 74.7456 59.562C74.821 59.5323 74.9019 59.5186 74.983 59.5219H74.9656ZM74.9656 60.4903C75.0234 60.4907 75.0806 60.479 75.1335 60.4559C75.1833 60.4339 75.2285 60.4028 75.2667 60.3643C75.3391 60.286 75.3793 60.1838 75.3793 60.0777C75.3793 59.9716 75.3391 59.8694 75.2667 59.7912C75.2286 59.7525 75.1834 59.7214 75.1335 59.6995C75.0806 59.6767 75.0234 59.665 74.9656 59.6651C74.9079 59.6654 74.8508 59.6771 74.7977 59.6995C74.7457 59.7206 74.6984 59.7518 74.6587 59.7912C74.5863 59.8694 74.5461 59.9716 74.5461 60.0777C74.5461 60.1838 74.5863 60.286 74.6587 60.3643C74.6985 60.4035 74.7457 60.4347 74.7977 60.4559C74.8561 60.4809 74.9194 60.4926 74.983 60.4903H74.9656ZM75.0003 59.8084C75.0544 59.8058 75.1077 59.822 75.1509 59.8542C75.1686 59.8688 75.1826 59.8873 75.1916 59.9082C75.2007 59.9291 75.2046 59.9519 75.203 59.9746C75.2038 59.9936 75.2007 60.0126 75.1937 60.0304C75.1867 60.0481 75.1761 60.0643 75.1625 60.0777C75.1289 60.1079 75.0861 60.1261 75.0409 60.1293L75.2088 60.3184H75.0756L74.9193 60.1293H74.8672V60.3184H74.7572V59.8141L75.0003 59.8084ZM74.873 59.9058V60.0434H75.0003C75.023 60.05 75.0471 60.05 75.0698 60.0434C75.0739 60.0354 75.076 60.0265 75.076 60.0176C75.076 60.0086 75.0739 59.9998 75.0698 59.9918C75.0739 59.9838 75.076 59.9749 75.076 59.966C75.076 59.957 75.0739 59.9482 75.0698 59.9402C75.0471 59.9335 75.023 59.9335 75.0003 59.9402L74.873 59.9058ZM68.5037 57.5793C68.5229 57.2568 68.637 56.9469 68.8319 56.6878C69.0268 56.4287 69.294 56.2317 69.6007 56.1209C69.9073 56.0102 70.2399 55.9907 70.5577 56.0647C70.8754 56.1387 71.1643 56.3031 71.3888 56.5375C71.6133 56.772 71.7636 57.0663 71.8213 57.3843C71.8789 57.7022 71.8413 58.0299 71.7132 58.327C71.585 58.6241 71.3719 58.8776 71.1 59.0563C70.8281 59.235 70.5093 59.3311 70.1829 59.3328C69.9536 59.3357 69.7263 59.2915 69.5151 59.2032C69.3039 59.1149 69.1134 58.9843 68.9557 58.8196C68.798 58.6549 68.6764 58.4597 68.5986 58.2462C68.5209 58.0328 68.4885 57.8057 68.5037 57.5793ZM27.8392 57.5793V54.8401H26.6349V55.5049C26.4303 55.2444 26.1662 55.0358 25.8641 54.8963C25.5621 54.7568 25.2309 54.6904 24.8978 54.7026C24.13 54.7026 23.3936 55.0045 22.8507 55.5418C22.3077 56.0791 22.0027 56.8079 22.0027 57.5678C22.0027 58.3277 22.3077 59.0565 22.8507 59.5938C23.3936 60.1312 24.13 60.433 24.8978 60.433C25.2309 60.4452 25.5621 60.3788 25.8641 60.2393C26.1662 60.0998 26.4303 59.8912 26.6349 59.6308V60.2955H27.8392V57.5793ZM23.3576 57.5793C23.3768 57.2568 23.4909 56.9469 23.6858 56.6878C23.8807 56.4287 24.1479 56.2317 24.4545 56.1209C24.7612 56.0102 25.0938 55.9907 25.4115 56.0647C25.7292 56.1387 26.0181 56.3031 26.2427 56.5375C26.4672 56.772 26.6175 57.0663 26.6752 57.3843C26.7328 57.7022 26.6952 58.0299 26.5671 58.327C26.4389 58.6241 26.2257 58.8776 25.9538 59.0563C25.6819 59.235 25.3632 59.3311 25.0368 59.3328C24.8066 59.3373 24.5779 59.2943 24.3653 59.2067C24.1528 59.1191 23.9609 58.9887 23.8019 58.8239C23.643 58.659 23.5203 58.4632 23.4419 58.249C23.3634 58.0347 23.3308 57.8067 23.346 57.5793H23.3576Z" fill="#231F20"/>
<path d="M51.6196 13.094H33.3805V45.5339H51.6196V13.094Z" fill="#FF5F00"/>
<path d="M34.5385 29.3174C34.5351 26.1928 35.2502 23.1084 36.6296 20.2977C38.0089 17.487 40.0164 15.0238 42.5 13.0946C39.4249 10.7029 35.7319 9.21559 31.8431 8.80274C27.9543 8.3899 24.0266 9.06816 20.5089 10.76C16.9912 12.4519 14.0254 15.089 11.9505 18.3701C9.87555 21.6512 8.77521 25.4439 8.77521 29.3146C8.77521 33.1853 9.87555 36.9779 11.9505 40.259C14.0254 43.5401 16.9912 46.1773 20.5089 47.8692C24.0266 49.561 27.9543 50.2393 31.8431 49.8264C35.7319 49.4136 39.4249 47.9263 42.5 45.5345C40.0172 43.6059 38.0102 41.1436 36.6308 38.334C35.2515 35.5244 34.536 32.4411 34.5385 29.3174Z" fill="#EB001B"/>
<path d="M76.2279 29.3168C76.2278 33.1878 75.1272 36.9807 73.0519 40.2619C70.9766 43.5431 68.0103 46.1802 64.4922 47.8718C60.974 49.5634 57.0459 50.2413 53.1569 49.8278C49.2679 49.4144 45.5749 47.9264 42.5 45.5339C44.9818 43.6035 46.9883 41.1406 48.368 38.3308C49.7477 35.5211 50.4646 32.4379 50.4646 29.3139C50.4646 26.1899 49.7477 23.1068 48.368 20.297C46.9883 17.4872 44.9818 15.0243 42.5 13.094C45.5749 10.7015 49.2679 9.21345 53.1569 8.80001C57.0459 8.38658 60.974 9.0644 64.4922 10.756C68.0103 12.4476 70.9766 15.0847 73.0519 18.366C75.1272 21.6472 76.2278 25.44 76.2279 29.3111V29.3168Z" fill="#F79E1B"/>
<path d="M74.2361 42.0956V41.4309H74.5082V41.2933H73.8192V41.4309H74.1145V42.0956H74.2361ZM75.5736 42.0956V41.2933H75.3651L75.1219 41.8664L74.8788 41.2933H74.6935V42.0956H74.844V41.4939L75.0698 42.0154H75.2262L75.452 41.4939V42.1013L75.5736 42.0956Z" fill="#F79E1B"/>
</svg>
