<svg width="304" height="237" viewBox="0 0 304 237" fill="none" xmlns="http://www.w3.org/2000/svg">
<path opacity="0.1" d="M110.661 235.363C171.777 235.363 221.322 233.594 221.322 231.412C221.322 229.23 171.777 227.461 110.661 227.461C49.5446 227.461 0 229.23 0 231.412C0 233.594 49.5446 235.363 110.661 235.363Z" fill="#E73D47"/>
<path opacity="0.1" d="M81.5688 7.17239C88.6188 0.879338 99.6849 -0.403222 109.758 0.098074C141.397 1.67263 169.957 16.9731 194.661 34.2797C203.604 40.5449 212.409 47.2969 218.214 55.9247C230.032 73.488 226.527 97.819 210.094 112.288C204.503 117.211 197.726 120.985 190.768 124.33C178.396 130.278 165.048 135.053 151.006 136.412C140.993 137.382 130.857 136.594 120.902 135.241C93.09 131.463 65.7904 123.109 42.9093 108.814C32.8738 102.545 23.4148 94.7511 19.2783 84.609C15.1418 74.4669 17.7891 61.6149 28.0364 55.6117C32.2746 53.1289 37.3419 52.0075 42.303 50.9546C49.6054 49.4047 57.025 47.8769 63.6149 44.7261C70.4213 41.4717 78.4809 35.1782 77.1333 27.9749C75.6872 20.246 74.5271 13.4581 81.5688 7.17239Z" fill="#E73D47"/>
<path opacity="0.1" d="M274.404 237C290.749 237 304 235.826 304 234.377C304 232.928 290.749 231.754 274.404 231.754C258.058 231.754 244.808 232.928 244.808 234.377C244.808 235.826 258.058 237 274.404 237Z" fill="#E73D47"/>
<path d="M154.358 89.2585C153.876 88.3242 151.329 82.5178 151.329 82.5178L147.061 71.4391C147.061 71.4391 144.032 66.7674 144.032 65.8998C144.032 65.0322 138.524 61.5618 138.524 61.5618C138.524 61.5618 134.049 60.227 133.705 60.0935C133.361 59.96 128.06 58.2034 128.06 58.2034C128.06 58.2034 125.972 55.4538 125.675 56.1719L125.675 56.1737C125.664 56.1556 125.653 56.1398 125.642 56.1212C125.215 55.3229 124.945 54.4503 124.846 53.5504C124.835 53.4704 124.825 53.386 124.815 53.3027C126.19 52.3692 127.317 51.114 128.098 49.6458C128.879 48.1776 129.292 46.5407 129.299 44.877C129.298 44.4389 129.269 44.0015 129.211 43.5673C129.249 43.5436 129.288 43.5227 129.329 43.5048C129.415 43.4675 129.393 43.4372 129.33 43.4056C129.352 43.3943 129.373 43.3822 129.395 43.373C129.509 43.3234 129.433 43.2858 129.323 43.2412L129.329 43.2379C129.485 43.1703 129.288 43.1255 129.13 43.054C129.122 43.0078 129.114 42.9615 129.105 42.9155C129.14 42.8276 129.161 42.7349 129.168 42.6405C129.182 42.6475 129.195 42.655 129.21 42.6615C129.248 42.4895 129.247 42.311 129.207 42.1394C129.197 42.1743 129.185 42.2085 129.171 42.242C129.181 42.0864 129.149 41.9311 129.078 41.7921C129.008 41.6532 128.901 41.5357 128.77 41.4519C128.762 41.445 128.754 41.4376 128.746 41.4306L129.038 38.4365C133.343 38.2327 134.098 30.8961 133.116 30.4885C132.134 30.0809 133.116 29.1978 133.116 27.4315C133.116 25.6652 129.868 23.6952 129.868 23.6952C129.868 23.6952 128.509 24.3746 126.394 20.9779C124.279 17.5813 116.5 17.0379 115.971 17.921C115.443 18.8041 111.968 19.959 107.437 21.2497C102.905 22.5404 103.736 27.907 104.491 29.0619C105.113 30.0166 105.478 31.1167 105.549 32.2547C105.549 32.934 106.984 35.7872 106.984 35.7872C106.531 36.7758 107.683 42.1919 108.024 43.7313C108.019 43.7786 108.013 43.8257 108.008 43.8733C108.005 43.8779 108.001 43.8819 107.999 43.8866C107.982 43.9114 107.968 43.9373 107.955 43.964C107.881 44.1235 107.857 44.3012 107.885 44.4746C107.86 44.6641 107.887 44.8568 107.961 45.0325C107.987 46.4827 108.322 47.9107 108.944 49.2207C109.565 50.5307 110.459 51.6926 111.566 52.6285C111.571 52.7211 111.576 52.8143 111.581 52.9097C111.645 54.167 111.68 55.654 111.614 57.0769C111.611 57.1497 111.606 57.221 111.602 57.2934C111.352 57.344 111.117 57.4527 110.917 57.6108C110.717 57.7689 110.557 57.9719 110.45 58.2034C110.023 59.0257 107.544 60.2937 107.544 60.2937C107.544 60.2937 103.207 60.4939 102.794 61.2948C102.381 62.0957 96.1162 64.7652 96.1162 64.7652C96.1162 64.7652 92.8117 66.7007 93.2936 68.9031C93.5454 70.0539 92.8385 71.8417 92.1061 73.2874C90.5742 72.7054 88.979 72.307 87.3536 72.1003L90.8633 75.4637C90.7897 75.5786 90.7464 75.6437 90.7464 75.6437L88.7499 82.718C88.7499 82.718 88.0615 85.1874 87.3731 85.788C86.6846 86.3887 87.9927 91.8613 87.9927 91.8613C87.9927 91.8613 87.2354 95.7322 86.6158 96.7333C85.9962 97.7344 87.5796 100.204 87.5796 100.204L90.7464 107.412L99.1453 109.547C99.1453 109.547 99.705 109.666 100.609 109.86C100.581 110.032 100.552 110.204 100.522 110.375C100.117 112.671 99.5859 114.782 98.9388 115.353C97.3554 116.755 97.4243 123.028 97.4243 123.028L97.4931 131.905C97.4931 131.905 98.0438 142.85 97.7685 143.25C97.5946 143.503 97.9435 143.915 98.8638 144.286C98.8375 144.45 98.8117 144.618 98.7873 144.788C98.5285 146.603 98.4129 148.675 99.0077 149.591C99.266 150.086 99.4073 150.634 99.4207 151.192C99.4207 152.06 100.729 153.862 100.729 153.862C100.729 153.862 99.6961 161.27 101.417 163.806C103.138 166.342 104.584 170.947 103.758 172.015C103.758 172.015 102.312 175.152 103.001 176.553C103.689 177.955 103.001 178.756 102.106 179.089C101.211 179.423 101.288 182.159 101.288 182.159L102.932 195.173C102.932 195.173 103.827 197.843 103.069 198.777C102.312 199.712 102.312 204.383 103.483 205.985C104.653 207.587 101.83 210.523 101.83 210.523C101.83 210.523 100.109 212.993 102.863 213.794C102.863 213.794 103.414 213.927 102.381 214.995C101.348 216.063 101.142 217.397 101.83 217.865C101.973 217.95 102.122 218.025 102.277 218.087C102.251 218.245 102.224 218.409 102.191 218.583C101.927 219.976 101.428 221.792 100.522 222.67C98.7663 224.472 97.251 226.495 96.0143 228.687C95.0698 230.481 94.6567 232.16 95.7032 232.948C98.1815 234.816 101.348 235.417 103.207 234.683C105.066 233.949 107.682 231.68 107.682 231.68L108.302 229.077C108.302 229.077 107.889 227.475 109.954 226.874C112.019 226.274 113.947 224.138 113.947 224.138V220.678C114.447 220.392 114.93 220.077 115.392 219.733C115.392 219.733 116.356 216.33 115.392 215.195C114.429 214.061 114.084 213.66 115.324 212.926C116.563 212.192 116.731 210.59 115.822 209.189C114.911 207.787 113.465 205.718 114.704 202.782C115.943 199.845 116.398 190.835 116.398 190.835C116.398 190.835 115.819 184.695 116.398 183.294C116.976 181.892 115.737 179.089 115.737 179.089C115.737 179.089 116.15 175.619 116.907 174.017C117.664 172.415 118.284 163.94 118.284 163.94C118.284 163.94 119.661 160.336 119.661 158C119.661 155.664 117.527 150.058 120.693 148.59C120.693 148.59 122.07 149.791 121.52 154.596C121.52 154.596 123.103 160.202 123.103 161.937C123.103 163.673 124.273 169.946 124.273 169.946C124.273 169.946 124.411 171.948 124.893 172.682C125.375 173.417 124.893 175.419 124.893 175.419C124.893 175.419 126.683 177.087 126.201 178.155C125.719 179.223 126.284 181.631 126.284 181.631L125.857 196.575C125.857 196.575 124.618 202.982 127.509 206.853C127.509 206.853 126.476 212.526 125.857 212.926C125.237 213.326 128.129 216.797 128.129 216.797C128.129 216.797 127.327 219.045 128.955 219.155V222.87C129.52 223.87 130.295 224.736 131.227 225.406C132.741 226.474 132.122 230.145 132.122 230.145C132.122 230.145 134.049 234.816 139.144 233.815C144.238 232.814 144.926 232.347 144.651 230.679C144.552 230.07 144.332 228.983 144.015 227.75C143.467 225.606 142.627 223.02 141.622 221.744C140.039 219.733 138.731 215.529 138.731 215.529C138.731 215.529 138.111 214.127 138.731 213.66C139.35 213.193 139.075 212.325 139.075 212.325C139.075 212.325 139.678 210.59 139.135 209.522C138.593 208.455 140.176 206.252 140.176 206.252L139.694 195.974L140.176 181.025C140.176 181.025 138.042 178.555 138.937 177.087C139.832 175.619 137.904 173.55 137.904 173.55C137.904 173.55 137.698 173.483 138.249 171.815C138.578 170.832 138.529 169.76 138.111 168.812C138.111 168.812 136.941 164.674 139.006 161.537C139.006 161.537 139.901 157.399 140.176 155.264C140.366 153.779 141.556 148.235 142.264 144.991C142.304 144.808 142.342 144.632 142.379 144.465C143.398 144.52 144.169 144.585 144.169 144.585C144.169 144.585 142.586 133.573 144.169 131.304C145.753 129.035 142.93 111.683 142.93 111.683C142.93 111.683 142.255 108.65 141.84 105.556C141.816 105.38 141.794 105.204 141.772 105.028C143.05 104.925 144.333 104.897 145.615 104.942C148.919 105.142 152.155 103.874 152.224 102.606C152.293 101.338 154.083 96.3329 154.358 95.1983C154.633 94.0638 154.84 90.1928 154.358 89.2585Z" fill="url(#paint0_linear)"/>
<path d="M114.188 218.006V224.185C114.188 224.185 112.33 226.312 110.34 226.91C108.35 227.508 108.748 229.103 108.748 229.103L108.151 231.694C108.151 231.694 105.63 233.953 103.839 234.684C102.048 235.415 98.9969 234.817 96.6088 232.957C95.6005 232.173 95.9985 230.501 96.9087 228.715C98.0944 226.539 99.5543 224.526 101.252 222.724C102.125 221.849 102.606 220.042 102.86 218.654C103.049 217.615 103.11 216.81 103.11 216.81L114.188 218.006Z" fill="#4C495A"/>
<path opacity="0.1" d="M114.188 222.617V224.185C114.188 224.185 112.33 226.312 110.34 226.91C108.35 227.508 108.748 229.103 108.748 229.103L108.151 231.694C108.151 231.694 105.63 233.953 103.839 234.684C102.048 235.415 98.9969 234.817 96.6088 232.957C95.6005 232.173 95.9985 230.501 96.9087 228.715C96.8662 230.591 97.4208 232.699 100.125 232.624C103.043 232.532 105.855 231.507 108.151 229.701C108.151 229.701 108.085 225.315 111.136 224.318C112.252 223.95 113.287 223.372 114.188 222.617Z" fill="black"/>
<path d="M138.467 233.82C133.558 234.817 131.7 230.166 131.7 230.166C131.7 230.166 132.297 226.511 130.838 225.448C129.936 224.774 129.189 223.913 128.649 222.923V216.81L134.619 212.557L137.851 215.422L138.069 215.614C138.069 215.614 139.329 219.8 140.855 221.801C141.823 223.072 142.632 225.647 143.161 227.782C143.466 229.01 143.678 230.091 143.773 230.697C144.039 232.359 143.375 232.824 138.467 233.82Z" fill="#4C495A"/>
<path opacity="0.1" d="M138.467 233.82C133.558 234.817 131.7 230.166 131.7 230.166C131.7 230.166 132.297 226.511 130.838 225.448C129.936 224.774 129.189 223.913 128.649 222.923V220.555C129.596 221.557 131.382 223.497 131.767 224.318C132.297 225.448 132.364 229.568 134.818 230.299C137.273 231.03 142.049 231.694 142.447 229.834C142.612 229.126 142.851 228.439 143.161 227.782C143.466 229.01 143.678 230.091 143.773 230.697C144.039 232.359 143.375 232.824 138.467 233.82Z" fill="black"/>
<path opacity="0.1" d="M103.11 216.81L114.188 218.006V221.272C112.938 222.014 111.147 222.801 110.141 221.993C108.655 220.802 104.237 219.29 102.86 218.654C103.049 217.615 103.11 216.81 103.11 216.81Z" fill="black"/>
<path opacity="0.1" d="M138.069 216.145C136.543 215.614 133.823 217.939 130.241 219.401C129.743 219.636 129.199 219.758 128.649 219.757V216.81L134.619 212.557L137.851 215.422C137.901 215.67 137.974 215.912 138.069 216.145Z" fill="black"/>
<path d="M141.982 142.986C141.982 142.986 141.773 143.964 141.473 145.383C140.791 148.613 139.645 154.133 139.462 155.611C139.196 157.737 138.334 161.857 138.334 161.857C136.344 164.98 137.472 169.1 137.472 169.1C137.875 170.048 137.922 171.11 137.604 172.09C137.073 173.751 137.273 173.818 137.273 173.818C137.273 173.818 139.13 175.878 138.268 177.34C137.405 178.801 139.462 181.26 139.462 181.26L138.997 196.144L139.462 206.377C139.462 206.377 137.936 208.57 138.459 209.633C138.981 210.697 138.4 212.424 138.4 212.424C138.4 212.424 138.666 213.288 138.069 213.753C137.472 214.218 138.069 215.614 138.069 215.614C136.543 215.082 133.823 217.408 130.241 218.87C126.659 220.331 127.853 216.876 127.853 216.876C127.853 216.876 125.067 213.421 125.664 213.022C126.261 212.624 127.256 206.975 127.256 206.975C124.47 203.121 125.664 196.742 125.664 196.742L126.075 181.863C126.075 181.863 125.531 179.466 125.995 178.403C126.46 177.34 124.735 175.678 124.735 175.678C124.735 175.678 125.199 173.685 124.735 172.954C124.271 172.223 124.138 170.23 124.138 170.23C124.138 170.23 123.01 163.983 123.01 162.256C123.01 160.528 121.485 154.947 121.485 154.947C122.015 150.162 120.689 148.966 120.689 148.966C117.637 150.428 119.694 156.01 119.694 158.335C119.694 160.661 118.367 164.249 118.367 164.249C118.367 164.249 117.77 172.688 117.04 174.283C116.31 175.878 115.912 179.333 115.912 179.333C115.912 179.333 117.106 182.124 116.549 183.519C115.992 184.915 116.549 191.028 116.549 191.028C116.549 191.028 116.111 199.998 114.917 202.922C113.723 205.846 115.116 207.906 115.995 209.301C116.87 210.697 116.708 212.291 115.514 213.022C114.32 213.753 114.652 214.152 115.581 215.281C116.509 216.411 115.581 219.8 115.581 219.8C115.581 219.8 111.8 222.79 110.141 221.461C108.483 220.132 103.176 218.405 102.513 217.939C101.849 217.474 102.048 216.145 103.043 215.082C104.038 214.019 103.508 213.886 103.508 213.886C100.854 213.089 102.513 210.63 102.513 210.63C102.513 210.63 105.232 207.706 104.105 206.112C102.977 204.517 102.977 199.865 103.707 198.935C104.436 198.005 103.574 195.347 103.574 195.347L101.99 182.39C101.99 182.39 101.916 179.665 102.778 179.333C103.64 179.001 104.304 178.203 103.64 176.808C102.977 175.413 104.37 172.289 104.37 172.289C105.166 171.226 103.773 166.641 102.115 164.116C100.456 161.591 101.451 154.216 101.451 154.216C101.451 154.216 100.191 152.421 100.191 151.558C100.178 151.003 100.042 150.458 99.7928 149.963C99.2197 149.051 99.3311 146.989 99.5806 145.181C99.822 143.432 100.191 141.923 100.191 141.923L141.982 142.986Z" fill="#5F5D7E"/>
<path d="M128.981 67.7002L115.912 70.7568C115.912 70.7568 109.478 65.308 111.07 62.3843C111.617 61.3796 111.858 59.6653 111.94 57.8526C112.004 56.4359 111.969 54.9554 111.908 53.7035C111.816 51.8935 111.667 50.5566 111.667 50.5566C111.667 50.5566 125.067 42.9815 124.602 50.5566C124.508 51.818 124.537 53.0857 124.69 54.3414C124.785 55.2349 125.045 56.1029 125.457 56.901C126.173 58.1795 127.057 58.1981 127.057 58.1981L128.981 67.7002Z" fill="#FDC2CC"/>
<path opacity="0.1" d="M124.69 54.3414C122.801 55.6985 120.509 56.3742 118.188 56.2583C115.867 56.1425 113.653 55.2419 111.908 53.7035C111.816 51.8935 111.667 50.5566 111.667 50.5566C111.667 50.5566 125.067 42.9815 124.602 50.5566C124.508 51.818 124.537 53.0857 124.69 54.3414Z" fill="black"/>
<path d="M118.699 56.0053C124.377 56.0053 128.981 51.3941 128.981 45.7058C128.981 40.0176 124.377 35.4064 118.699 35.4064C113.02 35.4064 108.417 40.0176 108.417 45.7058C108.417 51.3941 113.02 56.0053 118.699 56.0053Z" fill="#FDC2CC"/>
<path opacity="0.1" d="M128.981 67.7002L115.912 70.7568C115.912 70.7568 109.478 65.308 111.07 62.3843C111.617 61.3796 111.858 59.6653 111.94 57.8526C112.229 59.4288 113.074 60.8486 114.32 61.8527C117.306 63.8462 116.841 66.3048 116.841 66.3048L122.214 66.1054C121.883 63.9126 123.873 62.7166 124.536 62.4508C125.199 62.185 124.868 60.9889 124.868 60.9889L125.457 56.901C126.173 58.1795 127.057 58.1981 127.057 58.1981L128.981 67.7002Z" fill="black"/>
<path opacity="0.1" d="M141.982 142.986C141.982 142.986 141.773 143.964 141.473 145.383C140.029 145.306 138.122 145.25 137.273 145.444C135.813 145.777 129.976 145.91 129.976 145.91L115.514 146.423V145.976C113.851 145.989 112.19 146.1 110.539 146.308C108.085 146.641 104.237 146.175 101.783 145.777C101.027 145.668 100.288 145.468 99.5806 145.181C99.822 143.432 100.191 141.923 100.191 141.923L141.982 142.986Z" fill="black"/>
<path d="M140.855 100.791C140.645 102.033 140.799 104.09 141.064 106.12C141.465 109.201 142.115 112.22 142.115 112.22C142.115 112.22 144.835 129.497 143.309 131.756C141.783 134.015 143.309 144.979 143.309 144.979C143.309 144.979 138.732 144.581 137.272 144.913C135.813 145.245 129.976 145.378 129.976 145.378L115.514 145.891V145.444C113.851 145.458 112.19 145.569 110.539 145.777C108.085 146.109 104.237 145.644 101.783 145.245C99.3284 144.846 98.3334 144.049 98.5988 143.65C98.8641 143.252 98.3334 132.354 98.3334 132.354L98.2671 123.517C98.2671 123.517 98.2007 117.27 99.7265 115.875C100.35 115.306 100.862 113.204 101.252 110.918C101.812 107.609 102.115 103.914 102.115 103.914L92.0315 76.87L91.8325 76.3384C91.8325 76.3384 94.7513 71.82 94.2869 69.6272C93.8226 67.4344 97.0067 65.5074 97.0067 65.5074C97.0067 65.5074 103.043 62.8494 103.441 62.0521C103.839 61.2547 108.018 61.0554 108.018 61.0554C108.018 61.0554 110.407 59.7928 110.818 58.9742C110.918 58.7455 111.071 58.544 111.264 58.3864C111.458 58.2288 111.686 58.1196 111.93 58.0679C112.211 59.6635 113.06 61.1027 114.32 62.1185C117.305 64.112 116.841 66.5706 116.841 66.5706L122.214 66.3712C121.883 64.1784 123.873 62.9824 124.536 62.7166C125.199 62.4508 124.868 61.2547 124.868 61.2547L125.489 56.9515C125.775 56.2365 127.786 58.9742 127.786 58.9742C127.786 58.9742 132.894 60.7231 133.226 60.856C133.558 60.9889 137.869 62.3179 137.869 62.3179C137.869 62.3179 143.176 65.7732 143.176 66.637C143.176 67.5008 146.095 72.1522 146.095 72.1522C146.095 72.1522 146.061 72.3383 145.997 72.6785C145.323 76.3411 141.34 97.9341 140.855 100.791Z" fill="#E73D47"/>
<path d="M119.627 90.0267C119.627 90.0267 108.151 86.9701 107.023 86.2392C105.896 85.5083 99.2622 89.7609 107.355 95.5419C107.355 95.5419 117.251 97.6018 119.899 95.5419C122.546 93.482 119.627 90.0267 119.627 90.0267Z" fill="#FDC2CC"/>
<path opacity="0.1" d="M144.437 71.8199L145.83 71.8864L149.943 82.9168C149.943 82.9168 152.397 88.6978 152.861 89.628C153.326 90.5583 153.127 94.4123 152.861 95.5419C152.596 96.6716 150.871 101.655 150.805 102.918C150.739 104.18 147.621 105.443 144.437 105.243C141.253 105.044 133.823 106.041 133.823 106.041C133.823 106.041 125.888 105.21 121.02 107.702C121.02 107.702 117.902 101.256 118.234 89.2294C118.234 89.2294 123.74 88.8971 125.133 89.4287C126.526 89.9603 133.292 91.4886 134.155 90.6912C135.017 89.8938 138.931 92.1531 138.931 92.1531C139.13 91.7149 139.233 91.2391 139.233 90.7577C139.233 90.2762 139.13 89.8004 138.931 89.3623C138.268 87.7675 137.14 82.7839 138.599 81.1891C140.059 79.5944 144.437 71.8199 144.437 71.8199Z" fill="black"/>
<path opacity="0.1" d="M141.064 106.12C137.771 106.344 134.088 106.838 134.088 106.838C134.088 106.838 126.155 106.006 121.286 108.499C121.286 108.499 118.168 102.054 118.5 90.0267C118.5 90.0267 124.005 89.6945 125.398 90.2261C126.791 90.7577 133.558 92.286 134.42 91.4886C135.282 90.6912 139.196 92.9504 139.196 92.9504C139.395 92.5123 139.498 92.0365 139.498 91.555C139.498 91.0736 139.395 90.5978 139.196 90.1596C138.533 88.5649 137.405 83.5813 138.865 81.9865C140.324 80.3917 144.702 72.6173 144.702 72.6173L145.997 72.6784C145.323 76.3411 141.34 97.9341 140.855 100.791C140.645 102.033 140.799 104.09 141.064 106.12Z" fill="black"/>
<path d="M144.702 72.0858L146.095 72.1522L150.208 83.1826C150.208 83.1826 152.662 88.9636 153.127 89.8939C153.591 90.8241 153.392 94.6781 153.127 95.8077C152.861 96.9374 151.137 101.921 151.07 103.183C151.004 104.446 147.886 105.708 144.702 105.509C141.518 105.31 134.088 106.307 134.088 106.307C134.088 106.307 126.154 105.476 121.286 107.968C121.286 107.968 118.168 101.522 118.5 89.4952C118.5 89.4952 124.005 89.1629 125.398 89.6945C126.791 90.2261 133.558 91.7544 134.42 90.957C135.282 90.1596 139.196 92.4189 139.196 92.4189C139.395 91.9807 139.498 91.5049 139.498 91.0235C139.498 90.542 139.395 90.0662 139.196 89.6281C138.533 88.0333 137.405 83.0497 138.865 81.4549C140.324 79.8602 144.702 72.0858 144.702 72.0858Z" fill="#E73D47"/>
<path d="M130.687 96.493L132.342 97.5196L141.566 82.5974L139.911 81.5708L130.687 96.493Z" fill="#DFE6F5"/>
<path d="M146.296 80.5766C147.926 77.9393 147.751 74.873 145.904 73.7277C144.058 72.5824 141.239 73.7918 139.609 76.429C137.979 79.0662 138.154 82.1326 140.001 83.2779C141.847 84.4232 144.666 83.2138 146.296 80.5766Z" fill="#DFE6F5"/>
<path opacity="0.1" d="M145.353 79.9913C146.523 78.0983 146.397 75.8973 145.071 75.0752C143.746 74.2531 141.723 75.1212 140.553 77.0142C139.382 78.9072 139.508 81.1082 140.834 81.9303C142.159 82.7524 144.182 81.8843 145.353 79.9913Z" fill="black"/>
<path d="M125.973 104.12L127.628 105.146L133.367 95.8616L131.712 94.835L125.973 104.12Z" fill="#53526B"/>
<path d="M116.244 104.778L120.291 103.649C120.291 103.649 140.258 104.18 133.558 95.9406C133.558 95.9406 130.042 92.5518 122.679 95.2761C115.315 98.0005 113.259 98.3328 113.259 98.3328L116.244 104.778Z" fill="#FDC2CC"/>
<path opacity="0.1" d="M113.259 70.0258C113.699 70.0258 114.055 69.6689 114.055 69.2285C114.055 68.7881 113.699 68.4311 113.259 68.4311C112.819 68.4311 112.463 68.7881 112.463 69.2285C112.463 69.6689 112.819 70.0258 113.259 70.0258Z" fill="black"/>
<path opacity="0.1" d="M126.924 69.5607C127.364 69.5607 127.72 69.2037 127.72 68.7633C127.72 68.323 127.364 67.966 126.924 67.966C126.485 67.966 126.128 68.323 126.128 68.7633C126.128 69.2037 126.485 69.5607 126.924 69.5607Z" fill="black"/>
<path d="M113.259 69.7601C113.699 69.7601 114.055 69.4031 114.055 68.9627C114.055 68.5223 113.699 68.1653 113.259 68.1653C112.819 68.1653 112.463 68.5223 112.463 68.9627C112.463 69.4031 112.819 69.7601 113.259 69.7601Z" fill="white"/>
<path opacity="0.1" d="M114.387 81.0562C114.826 81.0562 115.183 80.6992 115.183 80.2589C115.183 79.8185 114.826 79.4615 114.387 79.4615C113.947 79.4615 113.591 79.8185 113.591 80.2589C113.591 80.6992 113.947 81.0562 114.387 81.0562Z" fill="black"/>
<path opacity="0.1" d="M127.322 80.2589C127.762 80.2589 128.118 79.9019 128.118 79.4615C128.118 79.0211 127.762 78.6641 127.322 78.6641C126.883 78.6641 126.526 79.0211 126.526 79.4615C126.526 79.9019 126.883 80.2589 127.322 80.2589Z" fill="black"/>
<path d="M114.387 80.7904C114.826 80.7904 115.183 80.4334 115.183 79.9931C115.183 79.5527 114.826 79.1957 114.387 79.1957C113.947 79.1957 113.591 79.5527 113.591 79.9931C113.591 80.4334 113.947 80.7904 114.387 80.7904Z" fill="white"/>
<path opacity="0.1" d="M126.99 118.737C127.43 118.737 127.787 118.38 127.787 117.939C127.787 117.499 127.43 117.142 126.99 117.142C126.551 117.142 126.194 117.499 126.194 117.939C126.194 118.38 126.551 118.737 126.99 118.737Z" fill="black"/>
<path opacity="0.1" d="M116.514 118.737C116.954 118.737 117.31 118.38 117.31 117.939C117.31 117.499 116.954 117.142 116.514 117.142C116.074 117.142 115.718 117.499 115.718 117.939C115.718 118.38 116.074 118.737 116.514 118.737Z" fill="black"/>
<path d="M126.99 118.471C127.43 118.471 127.787 118.114 127.787 117.674C127.787 117.233 127.43 116.876 126.99 116.876C126.551 116.876 126.194 117.233 126.194 117.674C126.194 118.114 126.551 118.471 126.99 118.471Z" fill="white"/>
<path opacity="0.1" d="M117.31 132.088C117.75 132.088 118.106 131.731 118.106 131.291C118.106 130.851 117.75 130.494 117.31 130.494C116.87 130.494 116.514 130.851 116.514 131.291C116.514 131.731 116.87 132.088 117.31 132.088Z" fill="black"/>
<path opacity="0.1" d="M127.322 131.291C127.762 131.291 128.118 130.934 128.118 130.494C128.118 130.053 127.762 129.696 127.322 129.696C126.883 129.696 126.526 130.053 126.526 130.494C126.526 130.934 126.883 131.291 127.322 131.291Z" fill="black"/>
<path d="M117.31 131.823C117.75 131.823 118.106 131.466 118.106 131.025C118.106 130.585 117.75 130.228 117.31 130.228C116.87 130.228 116.514 130.585 116.514 131.025C116.514 131.466 116.87 131.823 117.31 131.823Z" fill="white"/>
<path d="M116.514 118.471C116.954 118.471 117.31 118.114 117.31 117.674C117.31 117.233 116.954 116.876 116.514 116.876C116.074 116.876 115.718 117.233 115.718 117.674C115.718 118.114 116.074 118.471 116.514 118.471Z" fill="white"/>
<path d="M127.322 131.025C127.762 131.025 128.118 130.668 128.118 130.228C128.118 129.787 127.762 129.43 127.322 129.43C126.883 129.43 126.526 129.787 126.526 130.228C126.526 130.668 126.883 131.025 127.322 131.025Z" fill="white"/>
<path d="M126.924 69.2949C127.364 69.2949 127.72 68.9379 127.72 68.4976C127.72 68.0572 127.364 67.7002 126.924 67.7002C126.485 67.7002 126.128 68.0572 126.128 68.4976C126.128 68.9379 126.485 69.2949 126.924 69.2949Z" fill="white"/>
<path d="M127.322 79.9931C127.762 79.9931 128.118 79.6361 128.118 79.1957C128.118 78.7553 127.762 78.3983 127.322 78.3983C126.883 78.3983 126.526 78.7553 126.526 79.1957C126.526 79.6361 126.883 79.9931 127.322 79.9931Z" fill="white"/>
<path opacity="0.1" d="M128.516 107.17C128.516 107.17 128.649 125.377 129.047 128.633C129.047 128.633 129.191 108.029 128.516 107.17Z" fill="black"/>
<path opacity="0.1" d="M131.899 115.609C131.626 115.609 137.339 136.939 137.604 138.467C137.87 139.996 133.491 115.609 131.899 115.609Z" fill="black"/>
<path opacity="0.1" d="M136.41 112.154C136.41 112.353 139.594 123.716 141.186 124.314C142.778 124.912 136.41 112.154 136.41 112.154Z" fill="black"/>
<path opacity="0.1" d="M148.948 90.0267C148.948 90.0267 142.181 90.3288 141.982 91.3074C141.783 92.286 148.948 90.0267 148.948 90.0267Z" fill="black"/>
<path opacity="0.1" d="M137.007 176.675C137.007 176.675 132.165 178.735 132.894 178.868C133.624 179.001 137.007 176.675 137.007 176.675Z" fill="black"/>
<path opacity="0.1" d="M126.991 173.618C126.802 173.193 130.241 175.346 130.241 175.612C130.241 175.878 127.256 174.217 126.991 173.618Z" fill="black"/>
<path opacity="0.1" d="M131.501 180.596C131.501 180.596 135.282 180.404 135.548 181.862C135.813 183.32 131.501 180.596 131.501 180.596Z" fill="black"/>
<path opacity="0.1" d="M104.304 180.587C104.304 180.587 108.416 179.782 108.748 180.587C109.08 181.393 104.304 180.587 104.304 180.587Z" fill="black"/>
<path opacity="0.1" d="M105.829 205.646C105.829 205.646 106.099 209.035 105.102 209.833C104.105 210.63 105.829 205.646 105.829 205.646Z" fill="black"/>
<path opacity="0.1" d="M105.327 212.823C106.626 212.956 113.458 211.76 113.392 212.823C113.325 213.886 105.327 212.823 105.327 212.823Z" fill="black"/>
<path opacity="0.1" d="M136.675 208.703C136.675 208.703 134.345 208.344 134.913 209.919L136.675 208.703Z" fill="black"/>
<path opacity="0.1" d="M93.3584 76.0726H92.098L90.1743 83.1161C90.1743 83.1161 89.511 85.5747 88.8476 86.1727C88.1842 86.7708 89.4446 92.2195 89.4446 92.2195C89.4446 92.2195 88.7149 96.0735 88.1179 97.0702C87.5209 98.067 89.0466 100.526 89.0466 100.526L92.098 107.702L100.191 109.828C100.191 109.828 114.453 112.951 115.117 113.416C115.78 113.882 116.377 113.217 116.841 108.898C117.306 104.579 118.566 96.2064 119.561 95.8077C119.561 95.8077 111.601 96.6716 110.937 96.5387C110.274 96.4058 107.09 96.6051 107.09 96.6051C107.09 96.6051 102.911 96.3393 102.247 96.738C101.584 97.1367 103.11 94.808 103.11 94.808C103.389 93.7417 103.389 92.6213 103.11 91.555C102.645 89.7609 102.38 69.4278 93.3584 76.0726Z" fill="black"/>
<path opacity="0.1" d="M119.296 96.6051C118.301 97.0038 117.04 105.376 116.576 109.695C116.111 114.015 115.514 114.679 114.851 114.214C114.312 113.836 104.805 111.705 101.252 110.918C101.812 107.609 102.115 103.914 102.115 103.914L92.0316 76.87H93.093C102.115 70.2252 102.38 90.5583 102.844 92.3524C103.124 93.4188 103.124 94.5393 102.844 95.6057C102.844 95.6057 101.319 97.9341 101.982 97.5354C102.645 97.1367 106.824 97.4025 106.824 97.4025C106.824 97.4025 110.009 97.2031 110.672 97.336C111.335 97.4689 119.296 96.6051 119.296 96.6051Z" fill="black"/>
<path d="M93.093 76.3384H91.8326L89.9089 83.3819C89.9089 83.3819 89.2455 85.8405 88.5822 86.4385C87.9188 87.0366 89.1792 92.4853 89.1792 92.4853C89.1792 92.4853 88.4495 96.3393 87.8525 97.336C87.2555 98.3328 88.7812 100.791 88.7812 100.791L91.8326 107.968L99.9256 110.094C99.9256 110.094 114.188 113.217 114.851 113.682C115.514 114.147 116.111 113.483 116.576 109.164C117.04 104.845 118.301 96.4722 119.296 96.0735C119.296 96.0735 111.335 96.9374 110.672 96.8045C110.009 96.6716 106.824 96.8709 106.824 96.8709C106.824 96.8709 102.645 96.6051 101.982 97.0038C101.319 97.4025 102.844 95.0738 102.844 95.0738C103.124 94.0076 103.124 92.8871 102.844 91.8209C102.38 90.0267 102.115 69.6936 93.093 76.3384Z" fill="#E73D47"/>
<path opacity="0.1" d="M97.4048 100.393C97.4048 100.393 93.7564 107.303 93.093 106.506C92.4296 105.709 97.4048 100.393 97.4048 100.393Z" fill="black"/>
<path opacity="0.1" d="M93.6236 96.4575C93.6236 96.4575 90.2405 99.263 91.8325 99.994C93.4246 100.725 93.6236 96.4575 93.6236 96.4575Z" fill="black"/>
<path opacity="0.1" d="M96.8077 93.0169C97.0731 93.0834 101.717 94.0072 101.783 94.4091C101.849 94.811 96.8077 93.0169 96.8077 93.0169Z" fill="black"/>
<path opacity="0.1" d="M129.01 44.3397C128.866 44.3905 128.742 44.4883 128.66 44.6174C128.578 44.7465 128.541 44.8995 128.556 45.052C128.285 45.2912 127.906 45.0095 127.686 44.7038C127.463 44.4008 127.211 44.026 126.874 44.0685C126.714 44.1197 126.558 44.1846 126.409 44.2626C125.879 44.4327 125.43 43.8081 125.133 43.2605C124.616 42.301 124.098 41.3424 123.581 40.3847C122.543 40.988 121.317 40.3554 120.288 39.7308C119.258 39.1062 118.033 38.471 116.992 39.0743C115.467 39.9567 115.411 42.8991 113.83 43.6247C113.32 43.8586 112.728 43.8081 112.256 44.1297C111.789 44.4486 111.537 45.0626 111.327 45.65C111.25 45.9844 111.068 46.2852 110.807 46.5085C110.642 46.5951 110.458 46.6399 110.271 46.6388C109.802 46.7186 109.32 46.6508 108.891 46.4447C108.667 46.3032 108.497 46.0891 108.41 45.8378C108.323 45.5865 108.324 45.313 108.414 45.0626C108.426 45.0361 108.441 45.0103 108.456 44.9855C108.626 44.7797 108.779 44.5601 108.913 44.329C109.072 43.9064 108.844 43.4147 108.894 42.9575C108.976 42.1761 109.802 41.7641 109.942 40.996C110.001 40.6956 109.94 40.374 109.995 40.071C110.003 40.0313 110.014 39.9922 110.027 39.9541L109.542 40.289C110.086 39.6537 110.359 38.7713 110.757 38.0005C111.199 37.1566 111.807 36.4112 112.545 35.8095C113.283 35.2079 114.135 34.7624 115.05 34.5C116.78 33.995 118.608 34.1332 120.354 34.5611C122.015 34.9755 123.605 35.6319 125.075 36.5094C125.6 36.7914 126.066 37.1712 126.449 37.6284C126.77 38.1024 127.043 38.6072 127.264 39.1354C127.779 40.2039 129.185 41.1927 128.065 41.3415C127.134 41.4664 127.983 42.1203 128.471 42.5615C128.581 42.648 128.676 42.7522 128.752 42.8698C128.833 43.0379 128.871 43.2239 128.86 43.4103C128.85 43.5967 128.793 43.7774 128.694 43.9356C128.506 44.1749 129.27 44.2227 129.01 44.3397Z" fill="black"/>
<path d="M129.01 44.0739C128.866 44.1247 128.743 44.2225 128.66 44.3516C128.578 44.4807 128.541 44.6337 128.556 44.7862C128.285 45.0254 127.906 44.7437 127.686 44.438C127.463 44.135 127.211 43.7602 126.874 43.8028C126.714 43.8539 126.558 43.9188 126.409 43.9968C125.879 44.1669 125.43 43.5423 125.133 42.9948C124.616 42.0352 124.098 41.0766 123.581 40.1189C122.543 40.7222 121.318 40.0896 120.288 39.465C119.258 38.8404 118.033 38.2052 116.992 38.8085C115.467 39.691 115.411 42.6333 113.83 43.3589C113.32 43.5928 112.728 43.5423 112.256 43.8639C111.789 44.1828 111.537 44.7968 111.327 45.3842C111.25 45.7186 111.068 46.0194 110.807 46.2427C110.642 46.3293 110.458 46.3741 110.271 46.373C109.802 46.4528 109.32 46.385 108.892 46.1789C108.667 46.0374 108.497 45.8233 108.41 45.572C108.323 45.3207 108.325 45.0472 108.414 44.7968C108.426 44.7703 108.441 44.7445 108.456 44.7197C108.626 44.5139 108.779 44.2943 108.913 44.0632C109.072 43.6406 108.844 43.1489 108.894 42.6917C108.976 41.9103 109.802 41.4983 109.942 40.7302C110.001 40.4299 109.94 40.1082 109.995 39.8052C110.003 39.7655 110.014 39.7265 110.027 39.6883L109.542 40.0232C110.086 39.3879 110.359 38.5055 110.757 37.7347C111.199 36.8908 111.807 36.1454 112.545 35.5437C113.283 34.9421 114.135 34.4966 115.05 34.2342C116.78 33.7292 118.608 33.8674 120.354 34.2954C122.015 34.7097 123.605 35.3661 125.075 36.2436C125.6 36.5257 126.066 36.9054 126.449 37.3626C126.77 37.8366 127.043 38.3414 127.264 38.8696C127.779 39.9381 129.185 40.9269 128.065 41.0757C127.134 41.2006 127.983 41.8545 128.471 42.2957C128.581 42.3822 128.676 42.4864 128.752 42.604C128.833 42.7721 128.871 42.9581 128.86 43.1445C128.85 43.3309 128.793 43.5116 128.694 43.6699C128.506 43.9091 129.27 43.9569 129.01 44.0739Z" fill="#865A61"/>
<path opacity="0.1" d="M128.471 42.2957L128.365 43.4147C128.365 43.4147 117.231 29.2799 108.57 45.2407C108.57 45.2407 108.528 45.0467 108.456 44.7197C108.626 44.5139 108.779 44.2943 108.913 44.0632C109.072 43.6406 108.844 43.1489 108.894 42.6917C108.976 41.9103 109.802 41.4983 109.942 40.7302C110.001 40.4298 109.94 40.1082 109.995 39.8052C110.003 39.7655 110.014 39.7265 110.027 39.6883L109.542 40.0232C110.086 39.3879 110.359 38.5055 110.757 37.7347C111.199 36.8908 111.807 36.1454 112.545 35.5437C113.283 34.9421 114.135 34.4966 115.05 34.2342C116.78 33.7292 118.608 33.8674 120.354 34.2954C122.015 34.7097 123.605 35.3661 125.075 36.2436C125.6 36.5257 126.066 36.9054 126.449 37.3626C126.77 37.8366 127.043 38.3414 127.264 38.8696C127.779 39.9381 129.185 40.9269 128.065 41.0757C127.134 41.2006 127.983 41.8545 128.471 42.2957Z" fill="black"/>
<g opacity="0.1">
<path opacity="0.1" d="M128.746 43.9291C128.691 43.9909 128.651 44.0646 128.629 44.1444C128.607 44.2241 128.604 44.3079 128.619 44.3891C128.349 44.6284 127.969 44.3466 127.749 44.041C127.526 43.738 127.274 43.3632 126.937 43.4057C126.777 43.4569 126.622 43.5218 126.473 43.5998C125.942 43.7698 125.494 43.1452 125.197 42.5977C124.679 41.6382 124.162 40.6796 123.644 39.7218C122.607 40.3252 121.381 39.6926 120.351 39.068C119.322 38.4434 118.096 37.8081 117.056 38.4115C115.53 39.2939 115.474 42.2362 113.893 42.9618C113.383 43.1957 112.792 43.1452 112.319 43.4669C111.852 43.7858 111.6 44.3998 111.391 44.9872C111.313 45.3216 111.131 45.6224 110.871 45.8457C110.705 45.9323 110.521 45.977 110.335 45.9759C109.866 46.0557 109.384 45.988 108.955 45.7819C108.698 45.6112 108.514 45.3507 108.438 45.0512C108.385 45.2893 108.406 45.5379 108.499 45.7635C108.591 45.9892 108.75 46.1811 108.955 46.3135C109.384 46.5195 109.866 46.5873 110.335 46.5075C110.521 46.5086 110.705 46.4639 110.871 46.3773C111.131 46.1539 111.313 45.8531 111.391 45.5188C111.6 44.9314 111.852 44.3174 112.319 43.9984C112.792 43.6768 113.383 43.7273 113.893 43.4934C115.474 42.7678 115.53 39.8255 117.056 38.9431C118.096 38.3397 119.322 38.975 120.351 39.5996C121.381 40.2242 122.607 40.8568 123.644 40.2534C124.162 41.2103 124.679 42.1689 125.197 43.1293C125.494 43.6768 125.942 44.3014 126.473 44.1313C126.622 44.0534 126.777 43.9884 126.937 43.9373C127.274 43.8948 127.526 44.2695 127.749 44.5725C127.969 44.8782 128.349 45.16 128.619 44.9207C128.605 44.7683 128.641 44.6153 128.724 44.4862C128.806 44.357 128.929 44.2593 129.073 44.2084C129.28 44.1154 128.84 44.0658 128.746 43.9291Z" fill="black"/>
<path opacity="0.1" d="M127.878 41.2736C127.958 41.2413 128.043 41.22 128.129 41.2103C128.622 41.1446 128.624 40.9155 128.429 40.5885C128.336 40.6387 128.234 40.6694 128.129 40.6787C127.596 40.7501 127.646 40.9948 127.878 41.2736Z" fill="black"/>
<path opacity="0.1" d="M128.895 43.5C128.932 43.3286 128.931 43.1512 128.892 42.9802C128.868 43.0862 128.822 43.1859 128.757 43.2728C128.674 43.3783 128.777 43.4466 128.895 43.5Z" fill="black"/>
<path opacity="0.1" d="M108.973 42.7343C108.967 42.7647 108.961 42.7947 108.958 42.8263C108.947 43.0657 108.964 43.3055 109.009 43.5408C109.041 43.2717 109.028 42.9994 108.973 42.7343Z" fill="black"/>
<path opacity="0.1" d="M110.05 39.4915C109.925 39.7285 109.776 39.9518 109.605 40.1577L110.033 39.8624C110.031 39.7385 110.037 39.6147 110.05 39.4915Z" fill="black"/>
</g>
<path d="M108.57 44.9749C108.57 44.9749 106.969 37.8055 107.478 36.6557C107.478 36.6557 106.095 33.8149 106.095 33.1386C106.028 32.0099 105.678 30.9165 105.077 29.9597C104.349 28.8099 103.548 23.4666 107.915 22.1815C112.281 20.8964 115.629 19.7466 116.139 18.8674C116.648 17.9881 124.144 18.5292 126.182 21.911C128.219 25.2928 129.529 24.6164 129.529 24.6164C129.529 24.6164 132.659 26.5779 132.659 28.3364C132.659 30.095 131.712 30.9742 132.659 31.38C133.605 31.7859 132.877 39.0906 128.729 39.2935L128.365 43.1487C128.365 43.1487 117.23 29.0128 108.57 44.9749Z" fill="#E73D47"/>
<path opacity="0.1" d="M109.047 23.5786C109.047 23.5786 108.085 29.2267 109.843 31.1205L109.047 23.5786Z" fill="black"/>
<path opacity="0.1" d="M113.557 22.2829C113.557 22.2829 111.103 28.3297 111.7 29.4925L113.557 22.2829Z" fill="black"/>
<path opacity="0.1" d="M115.68 20.3559C115.68 20.3559 114.022 28.23 114.818 28.8612L115.68 20.3559Z" fill="black"/>
<path opacity="0.1" d="M118.533 22.4822C118.533 22.4822 116.476 27.5323 117.306 28.23L118.533 22.4822Z" fill="black"/>
<path opacity="0.1" d="M122.413 23.0803C122.413 23.0803 119.992 27.2 120.49 27.931L122.413 23.0803Z" fill="black"/>
<path opacity="0.1" d="M127.389 27.1004C127.389 27.1004 124.801 27.7981 125.332 28.6287L127.389 27.1004Z" fill="black"/>
<path opacity="0.1" d="M129.843 31.3863C129.843 31.3863 127.521 32.5159 127.952 33.1139L129.843 31.3863Z" fill="black"/>
<path opacity="0.1" d="M107.478 36.6557C107.478 36.6557 122.308 30.6219 128.729 39.2935C128.729 39.2935 120.935 32.6556 107.478 36.6557Z" fill="black"/>
<path d="M102.119 86.2334L104.186 84.1396L110.028 89.9243L107.961 92.0184L102.589 86.6984L102.119 86.2334Z" fill="#53526B"/>
<path d="M88.5635 72.8105C88.5635 72.8105 97.6074 73.5814 106.025 83.0718L102.516 86.6268L88.5635 72.8105Z" fill="#DFE6F5"/>
<path d="M115.69 89.7795C115.69 89.7795 106.998 86.6054 106.143 85.8463C105.289 85.0873 100.265 89.5035 106.395 95.5067C106.395 95.5067 113.89 97.6458 115.896 95.5067C117.901 93.3676 115.69 89.7795 115.69 89.7795Z" fill="#FDC2CC"/>
<path d="M276.593 150.446H274.825V190.282H276.593V150.446Z" fill="#535461"/>
<path d="M287.694 190.161L287.582 191.955L287.426 194.486L287.361 195.543L287.205 198.077L287.137 199.134L286.981 201.666L285.199 230.468C285.122 231.708 284.577 232.871 283.674 233.721C282.77 234.572 281.578 235.045 280.338 235.045H271.08C269.84 235.045 268.648 234.571 267.745 233.721C266.843 232.871 266.298 231.707 266.222 230.468L264.437 201.666L264.281 199.134L264.216 198.077L264.057 195.543L263.992 194.486L263.836 191.955L263.724 190.161C263.703 189.816 263.752 189.471 263.869 189.147C263.986 188.822 264.168 188.525 264.404 188.274C264.64 188.023 264.925 187.822 265.241 187.686C265.557 187.549 265.898 187.478 266.243 187.478H285.178C285.522 187.478 285.863 187.549 286.179 187.686C286.495 187.823 286.779 188.023 287.015 188.274C287.251 188.526 287.433 188.823 287.549 189.147C287.666 189.471 287.715 189.816 287.694 190.161Z" fill="#65617D"/>
<path d="M287.582 191.955L287.426 194.486H263.992L263.836 191.955H287.582Z" fill="#9D9CB5"/>
<path d="M287.361 195.543L287.205 198.078H264.216L264.057 195.543H287.361Z" fill="#9D9CB5"/>
<path d="M287.137 199.134L286.981 201.666H264.437L264.281 199.134H287.137Z" fill="#9D9CB5"/>
<path d="M261.138 165.377C271.426 172.831 275.709 184.491 275.709 184.491C275.709 184.491 263.313 184.066 253.025 176.611C242.738 169.157 238.455 157.497 238.455 157.497C238.455 157.497 250.851 157.923 261.138 165.377Z" fill="#E73D47"/>
<path d="M238.455 157.497C238.455 157.497 251.321 164.651 255.449 170.574C259.576 176.497 275.709 184.491 275.709 184.491" stroke="#535461" stroke-width="2" stroke-miterlimit="10"/>
<path d="M267.778 150.358C273.378 154.415 275.709 160.762 275.709 160.762C275.709 160.762 268.962 160.53 263.362 156.473C257.763 152.415 255.432 146.069 255.432 146.069C255.432 146.069 262.179 146.301 267.778 150.358Z" fill="#E73D47"/>
<path d="M255.432 146.069C255.432 146.069 262.435 149.963 264.681 153.186C266.928 156.41 275.709 160.762 275.709 160.762" stroke="#535461" stroke-width="2" stroke-miterlimit="10"/>
<path d="M283.846 160.439C277.414 167.519 276.054 176.771 276.054 176.771C276.054 176.771 285.121 174.543 291.552 167.462C297.983 160.381 299.344 151.129 299.344 151.129C299.344 151.129 290.277 153.358 283.846 160.439Z" fill="#E73D47"/>
<path d="M299.344 151.129C299.344 151.129 290.966 158.387 288.837 163.388C286.708 168.389 276.054 176.771 276.054 176.771" stroke="#535461" stroke-width="2" stroke-miterlimit="10"/>
<defs>
<linearGradient id="paint0_linear" x1="120.56" y1="234.987" x2="120.56" y2="17.5457" gradientUnits="userSpaceOnUse">
<stop stop-color="#808080" stop-opacity="0.25"/>
<stop offset="0.53514" stop-color="#808080" stop-opacity="0.12"/>
<stop offset="1" stop-color="#808080" stop-opacity="0.1"/>
</linearGradient>
</defs>
</svg>
