<svg width="329" height="179" viewBox="0 0 329 179" fill="none" xmlns="http://www.w3.org/2000/svg">
<path d="M225.562 153.14C256.264 152.779 286.966 152.986 317.667 153.76C320.308 153.827 323.048 153.913 325.381 154.61C327.713 155.306 329.508 156.801 328.87 158.237C316.885 158.59 304.888 158.7 292.879 158.565C290.264 159.841 287.392 161.763 289 163.484C290.112 164.675 292.857 165.03 295.258 165.033C299.607 165.038 303.973 164.327 308.257 164.744C312.541 165.161 316.815 167.406 315.56 169.736C314.607 171.506 310.992 172.382 307.702 172.539C304.411 172.695 301.042 172.37 297.826 172.789C294.77 173.187 292.122 174.222 289.261 174.944C284.749 176.084 279.748 176.436 274.827 176.735C237.04 179.035 198.939 179.017 160.93 178.996C145.542 178.988 129.945 178.964 115.086 176.726C106.616 175.451 98.4989 173.47 89.9219 172.442C79.6767 171.214 69.0882 171.381 58.6111 171.417C40.2182 171.482 21.8407 171.129 3.47883 170.358C2.1124 170.301 0.435153 170.106 0.0663932 169.368C-0.363961 168.505 1.3826 167.833 2.85892 167.489C11.2244 165.56 19.7305 164.296 28.2969 163.709C32.6353 163.405 37.1059 163.25 41.0961 162.249C45.0863 161.249 48.5723 159.151 48.5348 156.703C48.5234 155.957 48.2072 155.158 48.8326 154.499C49.663 153.623 51.7062 153.422 53.469 153.327C73.0111 152.269 92.6598 151.827 112.291 152.004C119.196 152.067 126.13 152.205 132.986 151.742C138.604 151.362 144.107 150.582 149.643 149.928C157.075 149.049 189.419 144.499 194.137 148.191C197.669 150.955 190.377 151.552 199.85 152.68C208.098 153.662 217.196 153.238 225.562 153.14Z" fill="#F2F2F2"/>
<path d="M106.033 140.515C106.033 140.515 94.6475 162.96 104.338 162.96C114.028 162.96 236.124 163.443 239.516 157.168C241.892 152.772 240.582 137.121 239.584 128.143C239.39 126.399 238.533 124.794 237.188 123.66C235.844 122.525 234.114 121.947 232.355 122.044C205.949 123.496 107.3 128.878 107.729 128.206C108.577 126.879 107.972 127.241 107.972 127.241C107.972 127.241 104.095 139.55 106.033 140.515Z" fill="#3F3D56"/>
<path opacity="0.1" d="M239.826 128.143C239.633 126.399 238.775 124.794 237.431 123.66C236.086 122.525 234.356 121.947 232.597 122.044C206.191 123.496 107.543 128.878 107.972 128.206C108.819 126.879 108.214 127.241 108.214 127.241C108.214 127.241 107.349 129.989 106.64 132.989C106.741 132.979 106.816 133.074 106.489 133.647C106.459 133.776 106.431 133.906 106.403 134.035C110.354 134.424 205.103 129.255 230.901 127.837C232.661 127.74 234.39 128.318 235.735 129.452C237.08 130.586 237.937 132.191 238.131 133.936C238.872 140.61 239.786 150.973 239.23 157.657C239.445 157.541 239.626 157.373 239.758 157.168C242.134 152.772 240.824 137.121 239.826 128.143Z" fill="black"/>
<path d="M119.604 106.877C118.342 106.492 116.745 105.994 116.889 105.182C116.965 104.751 117.545 104.415 117.964 104.053C118.773 103.357 118.991 102.375 118.122 101.702C117.253 101.029 115.161 100.939 114.394 101.651C114 102.018 114.024 102.477 113.82 102.891C113.185 104.182 110.616 104.749 108.433 105.25C106.25 105.752 103.808 106.685 104.013 108.02C104.237 109.477 107.604 110.769 106.249 112.011C105.758 112.462 104.724 112.713 104.504 113.228C104.35 113.591 104.661 113.96 104.962 114.291L107.107 116.644C107.96 117.581 108.839 118.6 108.553 119.642C107.987 121.708 103.383 122.499 99.7343 122.267C98.398 122.182 96.8275 122.065 95.9093 122.625C95.2016 123.056 95.2028 123.727 95.4381 124.302C96.0434 125.781 97.9801 127.062 100.459 127.623C97.6806 128.169 96.5897 130.47 98.5076 131.739C97.4101 132.115 96.2235 132.149 95.1061 131.836C94.1575 132.706 94.7152 133.9 95.9183 134.661C97.1213 135.422 98.8257 135.85 100.476 136.257L98.9316 137.695C100.049 138.565 102.463 138.258 104.091 137.709C105.718 137.159 107.484 136.421 109.308 136.709C111.018 136.978 112.312 138.115 114.053 137.92C115.403 137.77 116.045 136.906 116.466 136.16L118.253 132.989C120.797 133.386 123.473 131.649 122.451 130.264C125.298 130.569 128.1 128.726 127.166 127.165C128.682 128.33 129.75 129.683 130.272 131.103C130.505 131.737 130.647 132.408 131.283 132.945C131.699 133.253 132.18 133.461 132.69 133.553C133.199 133.645 133.723 133.618 134.221 133.475C133.702 134.478 133.281 135.648 134.348 136.499C135.415 137.35 138.494 137.108 138.358 136.066C139.985 136.762 141.808 137.417 143.841 137.469C145.875 137.521 148.1 136.75 148.285 135.595C151.151 136.537 154.149 137.018 157.166 137.019C157.423 136.247 159.215 135.997 160.555 136.186C161.895 136.375 163.138 136.828 164.519 136.829C165.9 136.83 167.384 136.002 166.677 135.327C169.584 135.932 172.569 136.083 175.522 135.771C178.308 135.477 180.949 134.776 183.77 134.625C186.632 134.452 189.497 134.902 192.166 135.946C193.091 136.333 194.241 136.819 195.257 136.516C195.833 136.344 196.113 135.973 196.505 135.677C198.19 134.403 201.636 134.647 204.294 135.148C206.953 135.649 210.045 136.252 212.375 135.367C213.254 135.033 213.901 134.517 214.836 134.236C218.185 133.232 222.194 135.806 225.749 135.065C226.907 134.824 227.846 134.247 229.072 134.176C231.247 134.05 232.685 135.518 234.799 135.834C236.994 136.162 239.373 134.832 238.837 133.576C240.946 133.623 243.049 133.332 245.066 132.714L244.069 130.928C246.552 130.888 248.378 129.115 247.228 127.861C249.717 127.389 251.685 126.118 252.197 124.652C252.708 123.187 251.744 121.583 249.761 120.605C248.591 120.027 247.054 119.621 246.385 118.825C245.903 118.253 245.973 117.586 245.786 116.96C245.376 115.59 243.599 114.38 241.303 113.908C240.306 113.703 239.214 113.625 238.311 113.309C237.409 112.992 236.756 112.307 237.278 111.781C237.553 111.503 238.085 111.339 238.428 111.086C239.821 110.062 237.433 108.765 235.394 108.19L240.262 108.031L241.308 103.309C239.382 104.87 234.385 104.542 233.134 102.772C234.698 103.284 236.795 102.63 237.559 101.7C238.324 100.77 238.136 99.6881 237.932 98.6678C237.913 98.4143 237.828 98.1702 237.686 97.9591C237.544 97.7481 237.349 97.5773 237.121 97.4635C236.644 97.2374 235.885 97.143 235.729 96.8012C235.569 96.4525 236.186 96.1441 236.277 95.7874C236.453 95.1028 234.873 94.8011 233.807 94.47C231.29 93.6889 230.071 91.4937 227.208 91.5651C224.367 91.6359 223.573 93.797 223.571 95.4167C223.569 97.0364 222.607 99.2024 219.764 99.1729C218.628 99.1611 217.638 98.7544 216.732 98.3648L208.588 94.8658C207.512 94.367 206.393 93.9672 205.244 93.6712C203.601 93.2893 201.787 93.2442 200.014 93.2041L188.622 92.9462C188.042 92.9008 187.458 92.9508 186.894 93.0942C186.295 93.2934 186.005 93.6856 185.644 94.0228C184.058 95.5066 180.328 96.0878 177.637 95.2705C176.923 95.0539 176.284 94.7552 175.527 94.5919C173.145 94.0776 170.646 95.0291 168.171 95.3728C164.114 95.9363 159.073 94.9664 156.148 96.664C155.173 97.23 154.656 98.0038 153.752 98.607C152.848 99.2102 151.218 99.6193 150.078 99.1638C150.221 100.271 150.352 101.426 149.6 102.45C148.847 103.474 146.918 104.309 145.023 104.051C144.017 103.786 144.096 102.944 144.572 102.374C145.048 101.804 145.777 101.221 145.54 100.605C145.305 99.9932 144.228 99.6374 143.423 99.2111C142.618 98.7847 142.081 97.9766 142.936 97.5831C142.36 96.8452 140.288 96.9352 139.377 97.5539C138.466 98.1727 138.375 99.0441 138.276 99.8497C138.176 100.655 137.96 101.538 136.904 102.077C135.105 102.996 131.651 102.519 130.458 103.716C130.079 104.096 130.057 104.555 129.84 104.974C128.872 106.846 124.693 107.331 121.277 107.483C121.205 107.873 121.189 108.271 121.23 108.665C122.398 108.161 120.451 107.135 119.604 106.877Z" fill="#61AB43"/>
<path opacity="0.1" d="M237.932 104.739C238.136 105.759 238.324 106.841 237.56 107.771C237.446 107.905 237.318 108.026 237.177 108.132C238.205 108.098 239.234 108.065 240.262 108.031C240.611 106.457 240.959 104.883 241.308 103.309C240.51 103.956 239.185 104.277 237.818 104.307C237.866 104.448 237.905 104.592 237.932 104.739Z" fill="black"/>
<path opacity="0.1" d="M238.831 110.301C238.709 109.662 237.653 109.014 236.47 108.552C235.429 109.044 234.245 109.148 233.134 108.843C233.997 110.063 236.641 110.598 238.831 110.301Z" fill="black"/>
<path opacity="0.1" d="M240.342 113.741C240.316 113.861 240.289 113.982 240.262 114.102C238.64 114.155 237.017 114.208 235.394 114.261C237.433 114.836 239.821 116.133 238.428 117.157C238.085 117.41 237.553 117.574 237.278 117.852C236.757 118.378 237.409 119.063 238.312 119.38C239.214 119.696 240.306 119.774 241.303 119.979C243.599 120.451 245.376 121.661 245.786 123.031C245.973 123.657 245.903 124.324 246.385 124.896C247.054 125.692 248.591 126.098 249.761 126.676C249.874 126.731 249.982 126.789 250.088 126.849C251.146 126.253 251.906 125.484 252.197 124.652C252.708 123.187 251.744 121.583 249.761 120.605C248.591 120.027 247.054 119.621 246.385 118.825C245.903 118.253 245.973 117.586 245.786 116.96C245.376 115.59 243.599 114.38 241.303 113.908C240.989 113.843 240.666 113.792 240.342 113.741Z" fill="black"/>
<path opacity="0.1" d="M97.7204 135.485C98.0993 134.681 99.0673 133.967 100.459 133.694C99.1293 133.419 97.877 132.856 96.7902 132.046C96.2214 132.062 95.6533 131.991 95.1061 131.836C94.1575 132.706 94.7152 133.9 95.9183 134.661C96.4856 135.003 97.0903 135.279 97.7204 135.485Z" fill="black"/>
<path opacity="0.1" d="M106.307 111.952C107 111.693 107.711 111.483 108.433 111.321C110.616 110.819 113.185 110.253 113.82 108.962C114.024 108.548 114 108.089 114.394 107.722C115.161 107.01 117.253 107.1 118.122 107.773C118.991 108.446 118.773 109.428 117.964 110.124C117.544 110.486 116.965 110.822 116.889 111.253C116.745 112.065 118.342 112.562 119.604 112.948C120.199 113.138 120.755 113.431 121.248 113.811C121.259 113.725 121.269 113.639 121.277 113.554C124.693 113.402 128.872 112.917 129.84 111.045C130.057 110.626 130.079 110.167 130.458 109.787C131.651 108.59 135.105 109.067 136.904 108.148C137.96 107.609 138.176 106.726 138.276 105.921C138.375 105.115 138.466 104.244 139.377 103.625C140.288 103.006 142.36 102.916 142.936 103.654C142.081 104.048 142.618 104.856 143.423 105.282C144.228 105.708 145.305 106.064 145.54 106.676C145.777 107.292 145.048 107.875 144.572 108.445C144.096 109.015 144.017 109.857 145.023 110.122C146.918 110.38 148.847 109.545 149.6 108.521C150.352 107.497 150.221 106.342 150.078 105.235C151.218 105.69 152.848 105.281 153.752 104.678C154.656 104.075 155.173 103.301 156.148 102.735C159.073 101.037 164.114 102.007 168.171 101.444C170.646 101.1 173.145 100.149 175.527 100.663C176.284 100.826 176.923 101.125 177.637 101.341C180.328 102.159 184.058 101.578 185.644 100.094C186.005 99.7565 186.295 99.3643 186.894 99.1652C187.458 99.0217 188.041 98.9717 188.622 99.0171C192.419 99.1031 196.216 99.1891 200.014 99.275C201.786 99.3152 203.601 99.3603 205.244 99.7422C206.393 100.038 207.512 100.438 208.588 100.937C211.303 102.103 214.017 103.269 216.732 104.436C217.638 104.825 218.628 105.232 219.764 105.244C222.607 105.273 223.569 103.107 223.571 101.488C223.573 99.8679 224.367 97.7068 227.208 97.636C230.071 97.5647 231.29 99.7598 233.806 100.541C234.873 100.872 236.453 101.174 236.277 101.858C236.196 102.176 235.699 102.456 235.704 102.759C236.413 102.593 237.057 102.225 237.559 101.7C238.324 100.77 238.136 99.6882 237.932 98.6678C237.913 98.4144 237.828 98.1702 237.686 97.9592C237.543 97.7481 237.349 97.5774 237.121 97.4636C236.644 97.2375 235.885 97.1431 235.729 96.8013C235.569 96.4525 236.186 96.1441 236.277 95.7875C236.453 95.1029 234.873 94.8012 233.806 94.4701C231.29 93.6889 230.071 91.4938 227.208 91.5651C224.367 91.6359 223.573 93.797 223.571 95.4167C223.569 97.0365 222.607 99.2025 219.764 99.1729C218.628 99.1612 217.638 98.7544 216.732 98.3649C214.017 97.1985 211.303 96.0322 208.588 94.8658C207.512 94.3671 206.393 93.9672 205.244 93.6713C203.601 93.2894 201.786 93.2443 200.014 93.2041C196.216 93.1182 192.419 93.0322 188.622 92.9462C188.041 92.9008 187.458 92.9508 186.894 93.0943C186.295 93.2934 186.005 93.6856 185.644 94.0228C184.058 95.5066 180.328 96.0878 177.637 95.2706C176.923 95.0539 176.284 94.7552 175.527 94.5919C173.145 94.0776 170.646 95.0291 168.171 95.3729C164.114 95.9364 159.073 94.9665 156.148 96.6641C155.173 97.23 154.656 98.0039 153.752 98.6071C152.848 99.2103 151.218 99.6193 150.078 99.1639C150.221 100.271 150.352 101.426 149.6 102.45C148.847 103.474 146.918 104.309 145.023 104.051C144.017 103.786 144.096 102.944 144.572 102.374C145.048 101.804 145.777 101.221 145.54 100.605C145.305 99.9932 144.228 99.6375 143.423 99.2111C142.618 98.7847 142.081 97.9766 142.936 97.5831C142.36 96.8452 140.288 96.9352 139.377 97.554C138.466 98.1728 138.375 99.0442 138.276 99.8498C138.176 100.655 137.96 101.538 136.904 102.077C135.105 102.996 131.651 102.519 130.458 103.716C130.079 104.096 130.057 104.555 129.84 104.974C128.872 106.846 124.693 107.331 121.277 107.483C121.269 107.569 121.259 107.654 121.248 107.741C120.755 107.36 120.199 107.067 119.604 106.877C118.342 106.492 116.745 105.994 116.889 105.182C116.965 104.751 117.544 104.415 117.964 104.053C118.773 103.357 118.991 102.375 118.122 101.702C117.253 101.029 115.161 100.939 114.394 101.651C114 102.018 114.024 102.477 113.82 102.891C113.185 104.182 110.616 104.749 108.433 105.25C106.25 105.752 103.808 106.685 104.013 108.02C104.233 109.454 107.494 110.728 106.307 111.952Z" fill="black"/>
<path opacity="0.1" d="M100.459 127.623C99.8583 127.733 99.2848 127.957 98.7689 128.282C99.096 128.296 99.4215 128.318 99.7343 128.338C103.383 128.57 107.987 127.779 108.553 125.713C108.839 124.671 107.96 123.652 107.107 122.715C106.764 122.339 106.421 121.963 106.078 121.586C104.293 122.191 101.853 122.401 99.7343 122.267C98.3981 122.182 96.8275 122.065 95.9093 122.625C95.2016 123.056 95.2029 123.727 95.4381 124.302C96.0434 125.781 97.98 127.062 100.459 127.623Z" fill="black"/>
<path d="M174.774 118.176C194.843 118.176 211.112 107.478 211.112 94.282C211.112 81.0859 194.843 70.3884 174.774 70.3884C154.705 70.3884 138.436 81.0859 138.436 94.282C138.436 107.478 154.705 118.176 174.774 118.176Z" fill="#EA565C"/>
<path opacity="0.2" d="M162.419 92.5926C162.419 92.5926 145.946 94.282 150.791 87.2829C155.636 80.2837 161.692 77.8702 164.599 79.801C167.506 81.7318 168.718 87.0415 168.233 87.0415C167.749 87.0415 160.723 82.9386 158.301 86.0761C155.878 89.2137 162.419 92.5926 162.419 92.5926Z" fill="white"/>
<path opacity="0.2" d="M176.693 93.2766C176.693 93.2766 190.296 102.686 182.043 104.852C173.791 107.018 167.618 104.919 166.675 101.567C165.731 98.2154 168.284 93.4007 168.652 93.7152C169.019 94.0296 171.667 101.702 175.556 100.894C179.446 100.085 176.693 93.2766 176.693 93.2766Z" fill="white"/>
<path opacity="0.2" d="M179.868 87.3801C179.868 87.3801 180.942 70.9163 187.061 76.8423C193.181 82.7684 194.56 89.12 192.165 91.6539C189.769 94.1878 184.312 94.4927 184.393 94.0167C184.474 93.5408 189.706 87.3233 187.004 84.4207C184.303 81.518 179.868 87.3801 179.868 87.3801Z" fill="white"/>
<path d="M130.926 116.245C150.995 116.245 167.264 105.547 167.264 92.3512C167.264 79.1551 150.995 68.4576 130.926 68.4576C110.857 68.4576 94.5876 79.1551 94.5876 92.3512C94.5876 105.547 110.857 116.245 130.926 116.245Z" fill="#EA565C"/>
<path opacity="0.2" d="M118.571 90.6618C118.571 90.6618 102.098 92.3512 106.943 85.3521C111.788 78.3529 117.844 75.9394 120.751 77.8702C123.658 79.801 124.87 85.1107 124.385 85.1107C123.901 85.1107 116.875 81.0078 114.453 84.1453C112.03 87.2829 118.571 90.6618 118.571 90.6618Z" fill="white"/>
<path opacity="0.2" d="M132.845 91.3458C132.845 91.3458 146.448 100.755 138.195 102.921C129.943 105.087 123.77 102.988 122.827 99.6362C121.883 96.2846 124.436 91.4699 124.804 91.7844C125.171 92.0988 127.819 99.7711 131.708 98.9628C135.598 98.1544 132.845 91.3458 132.845 91.3458Z" fill="white"/>
<path opacity="0.2" d="M136.02 85.4493C136.02 85.4493 137.094 68.9855 143.213 74.9115C149.333 80.8376 150.712 87.1892 148.317 89.7231C145.921 92.257 140.464 92.5618 140.545 92.0859C140.626 91.61 145.858 85.3925 143.156 82.4899C140.455 79.5872 136.02 85.4493 136.02 85.4493Z" fill="white"/>
<path opacity="0.1" d="M149.836 72.0168C157.752 76.3997 162.782 82.9629 162.782 90.2997C162.782 103.496 146.513 114.193 126.444 114.193C119.568 114.193 113.137 112.937 107.655 110.755C113.976 114.255 122.136 116.366 131.047 116.366C151.116 116.366 167.385 105.668 167.385 92.4719C167.385 83.7974 160.355 76.203 149.836 72.0168Z" fill="black"/>
<path opacity="0.1" d="M193.684 73.7062C201.6 78.0892 206.63 84.6524 206.63 91.9892C206.63 105.185 190.361 115.883 170.292 115.883C163.416 115.883 156.985 114.626 151.503 112.444C157.824 115.945 165.984 118.055 174.895 118.055C194.964 118.055 211.233 107.357 211.233 94.1614C211.233 85.4869 204.203 77.8925 193.684 73.7062Z" fill="black"/>
<path d="M108.842 87.7738C108.842 87.7738 140.093 54.4675 216.645 68.2245C277.161 79.0994 227.467 97.817 203.991 105.182C197.18 107.318 190.124 108.584 182.992 108.949C156.507 110.307 89.8896 111.522 108.842 87.7738Z" fill="#714B4F"/>
<path opacity="0.1" d="M203.991 97.7003C197.18 99.8363 190.124 101.102 182.992 101.467C161.537 102.568 113.745 103.573 106.444 91.2896C97.2238 111.144 157.99 109.99 182.992 108.707C190.124 108.342 197.179 107.077 203.991 104.941C221.199 99.5423 252.49 88.0446 244.143 78.0066C238.524 85.8842 217.144 93.574 203.991 97.7003Z" fill="black"/>
<path opacity="0.1" d="M175.583 68.3451L184.062 84.9983" stroke="black" stroke-width="2" stroke-miterlimit="10"/>
<path opacity="0.1" d="M149.42 74.3789L156.687 88.3772" stroke="black" stroke-width="2" stroke-miterlimit="10"/>
<path opacity="0.1" d="M190.845 68.3451L202.231 84.9983" stroke="black" stroke-width="2" stroke-miterlimit="10"/>
<path opacity="0.1" d="M149.42 89.8253L225.73 80.1713" stroke="black" stroke-width="2" stroke-miterlimit="10"/>
<path opacity="0.1" d="M222.823 71.4827L228.152 78.9645" stroke="black" stroke-width="2" stroke-miterlimit="10"/>
<path opacity="0.1" d="M134.4 80.1713L137.792 87.1704" stroke="black" stroke-width="2" stroke-miterlimit="10"/>
<path d="M145.791 57.4972C145.791 57.4972 215.478 57.1831 216.117 56.555C216.756 55.9268 231.461 55.594 234.338 59.6772C237.215 63.7603 238.174 65.6449 234.338 66.273C230.502 66.9012 104.235 131.29 104.235 131.29C104.235 131.29 97.2022 131.918 100.718 125.008C104.235 118.098 145.791 57.4972 145.791 57.4972Z" fill="#F6C964"/>
<path d="M175.047 86.2166C175.047 88.8158 162.466 95.1466 146.946 95.1466C131.426 95.1466 118.844 88.8158 118.844 86.2166C118.844 83.6174 131.426 82.5964 146.946 82.5964C162.466 82.5964 175.047 83.6174 175.047 86.2166Z" fill="#61AB43"/>
<path d="M146.946 90.8023C162.466 90.8023 175.047 88.6952 175.047 86.0959C175.047 83.4967 162.466 81.3896 146.946 81.3896C131.426 81.3896 118.844 83.4967 118.844 86.0959C118.844 88.6952 131.426 90.8023 146.946 90.8023Z" fill="#61AB43"/>
<path d="M208.963 81.8723C208.963 84.4716 196.382 90.8023 180.862 90.8023C165.341 90.8023 152.76 84.4716 152.76 81.8723C152.76 79.2731 165.341 78.2521 180.862 78.2521C196.382 78.2521 208.963 79.2731 208.963 81.8723Z" fill="#61AB43"/>
<path d="M180.862 86.458C196.382 86.458 208.963 84.3509 208.963 81.7516C208.963 79.1524 196.382 77.0453 180.862 77.0453C165.341 77.0453 152.76 79.1524 152.76 81.7516C152.76 84.3509 165.341 86.458 180.862 86.458Z" fill="#61AB43"/>
<path d="M242.879 77.528C242.879 80.1273 230.297 86.458 214.777 86.458C199.257 86.458 186.676 80.1273 186.676 77.528C186.676 74.9288 199.257 73.9078 214.777 73.9078C230.297 73.9078 242.879 74.9288 242.879 77.528Z" fill="#61AB43"/>
<path d="M214.777 82.1137C230.297 82.1137 242.879 80.0066 242.879 77.4073C242.879 74.8081 230.297 72.701 214.777 72.701C199.257 72.701 186.676 74.8081 186.676 77.4073C186.676 80.0066 199.257 82.1137 214.777 82.1137Z" fill="#61AB43"/>
<path d="M111.285 78.8651C111.285 78.8651 99.727 76.9906 105.64 67.6184C111.553 58.2461 113.542 47.7399 116.123 45.3927C119.008 42.7685 178.551 -3.24099 224.939 47.6711C229.853 53.1291 233.848 59.3439 236.769 66.0742C237.33 67.3466 237.949 68.4886 238.553 69.0911C240.435 70.9656 242.047 76.3212 238.553 78.999C235.059 81.6768 132.115 92.1202 111.285 78.8651Z" fill="#3F3D56"/>
<path d="M165.444 39.9032C164.732 40.3966 163.892 40.6755 163.025 40.7065C161.689 40.7065 160.606 40.3469 160.606 39.9032C160.606 39.4595 161.689 39.0999 163.025 39.0999C163.892 39.1309 164.732 39.4097 165.444 39.9032Z" fill="#F2F2F2"/>
<path d="M146.092 34.8154C145.38 35.3088 144.54 35.5877 143.673 35.6187C142.337 35.6187 141.254 35.259 141.254 34.8154C141.254 34.3717 142.337 34.012 143.673 34.012C144.54 34.0431 145.38 34.3219 146.092 34.8154Z" fill="#F2F2F2"/>
<path d="M198.663 42.2294C197.835 42.4885 196.95 42.5049 196.114 42.2766C194.839 41.8792 193.913 41.2138 194.046 40.7903C194.179 40.3669 195.32 40.3458 196.595 40.7432C197.413 41.0307 198.131 41.5466 198.663 42.2294Z" fill="#F2F2F2"/>
<path d="M162.915 28.5727C162.087 28.8317 161.202 28.8481 160.365 28.6198C159.09 28.2224 158.165 27.557 158.297 27.1336C158.43 26.7101 159.572 26.689 160.847 27.0864C161.665 27.3739 162.383 27.8899 162.915 28.5727Z" fill="#F2F2F2"/>
<path d="M201.888 33.3927C201.061 33.6518 200.176 33.6681 199.339 33.4399C198.064 33.0425 197.138 32.377 197.271 31.9536C197.404 31.5302 198.545 31.5091 199.82 31.9065C200.639 32.1939 201.356 32.7099 201.888 33.3927Z" fill="#F2F2F2"/>
<path d="M193.935 32.6731C193.223 33.1666 192.383 33.4455 191.516 33.4765C190.18 33.4765 189.097 33.1168 189.097 32.6731C189.097 32.2295 190.18 31.8698 191.516 31.8698C192.383 31.9008 193.223 32.1797 193.935 32.6731Z" fill="#F2F2F2"/>
<path d="M170.82 27.8531C170.108 28.3466 169.268 28.6255 168.401 28.6565C167.065 28.6565 165.982 28.2968 165.982 27.8531C165.982 27.4095 167.065 27.0498 168.401 27.0498C169.268 27.0808 170.108 27.3597 170.82 27.8531Z" fill="#F2F2F2"/>
<path d="M188.56 27.8531C187.847 28.3466 187.008 28.6255 186.141 28.6565C184.805 28.6565 183.722 28.2968 183.722 27.8531C183.722 27.4095 184.805 27.0498 186.141 27.0498C187.008 27.0808 187.847 27.3597 188.56 27.8531Z" fill="#F2F2F2"/>
<path d="M181.84 38.2965C181.128 38.79 180.288 39.0688 179.421 39.0999C178.085 39.0999 177.002 38.7402 177.002 38.2965C177.002 37.8528 178.085 37.4932 179.421 37.4932C180.288 37.5242 181.128 37.8031 181.84 38.2965Z" fill="#F2F2F2"/>
<path d="M162.295 36.4199C162.497 35.5792 162.937 34.8142 163.564 34.216C164.56 33.3298 165.609 32.8798 165.905 33.2109C166.202 33.5419 165.634 34.5287 164.637 35.4148C163.97 35.9667 163.157 36.3156 162.295 36.4199Z" fill="#F2F2F2"/>
<path d="M150.2 33.4743C150.402 32.6336 150.842 31.8686 151.468 31.2704C152.465 30.3842 153.514 29.9343 153.81 30.2653C154.107 30.5964 153.539 31.5831 152.542 32.4692C151.874 33.0212 151.061 33.37 150.2 33.4743Z" fill="#F2F2F2"/>
<path d="M129.235 47.9344C129.437 47.0937 129.877 46.3287 130.503 45.7305C131.5 44.8443 132.549 44.3944 132.845 44.7254C133.142 45.0565 132.574 46.0432 131.577 46.9293C130.909 47.4813 130.096 47.8301 129.235 47.9344Z" fill="#F2F2F2"/>
<path d="M175.735 31.8676C175.936 31.027 176.377 30.2619 177.003 29.6637C178 28.7776 179.048 28.3276 179.345 28.6587C179.641 28.9897 179.073 29.9764 178.076 30.8626C177.409 31.4145 176.596 31.7634 175.735 31.8676Z" fill="#F2F2F2"/>
<path d="M170.896 41.5077C171.098 40.667 171.538 39.902 172.165 39.3038C173.162 38.4176 174.21 37.9677 174.506 38.2987C174.803 38.6298 174.235 39.6165 173.238 40.5026C172.571 41.0545 171.758 41.4034 170.896 41.5077Z" fill="#F2F2F2"/>
<path d="M260.177 146.444C260.177 146.444 256.497 147.544 254.656 149.743C254.656 149.743 251.344 151.21 249.32 150.843C247.296 150.477 243.616 154.143 246.56 155.243C249.504 156.343 267.537 159.276 267.905 158.359C268.273 157.443 268.273 148.093 268.273 148.093L260.177 146.444Z" fill="#575A89"/>
<path d="M289.084 144.869C289.084 144.869 285.647 146.579 284.211 149.06C284.211 149.06 281.199 151.069 279.142 151.052C277.085 151.035 274.087 155.274 277.177 155.856C280.266 156.439 298.536 156.261 298.742 155.295C298.947 154.329 297.344 145.117 297.344 145.117L289.084 144.869Z" fill="#575A89"/>
<path d="M266.157 20.5963C270.73 20.5963 274.437 16.903 274.437 12.3471C274.437 7.79112 270.73 4.09779 266.157 4.09779C261.584 4.09779 257.877 7.79112 257.877 12.3471C257.877 16.903 261.584 20.5963 266.157 20.5963Z" fill="#FFB9B9"/>
<path d="M272.873 13.722C272.873 13.722 273.793 19.9547 275.449 20.688C276.601 21.2531 277.657 21.9954 278.577 22.8878L273.977 25.0876L264.961 24.5377C264.961 24.5377 265.697 20.5047 264.409 18.4882C263.121 16.4717 272.873 13.722 272.873 13.722Z" fill="#FFB9B9"/>
<path d="M289.985 43.236C289.985 43.236 294.217 54.0517 289.985 64.5008C285.753 74.9499 283.913 76.5998 283.913 76.5998L282.625 62.851L284.106 61.5123C284.106 61.5123 285.003 57.3412 284.274 54.8715C283.545 52.4019 284.649 44.7026 284.649 44.7026L289.985 43.236Z" fill="#FFB9B9"/>
<path d="M258.337 66.7006C258.337 66.7006 253 78.7996 253.553 84.6657C254.105 90.5319 258.337 115.28 258.337 115.28C258.337 115.28 257.785 147.177 259.441 147.177C261.097 147.177 269.009 150.11 269.009 148.093C269.009 146.077 270.665 97.6812 270.665 97.6812C270.665 97.6812 280.049 118.946 280.969 120.596C281.889 122.246 287.777 148.093 289.801 148.093C291.825 148.093 298.081 146.26 297.529 144.977C296.977 143.694 290.721 115.096 287.225 107.764C283.729 100.431 284.465 72.7501 284.465 72.7501L278.577 59.9179L258.337 66.7006Z" fill="#3F3D56"/>
<path d="M263.673 8.58906C263.673 8.58906 258.521 8.22243 258.153 6.93921C257.785 5.65599 257.049 4.55608 257.417 4.55608C257.785 4.55608 257.969 3.6395 257.969 3.6395C257.969 3.6395 258.337 3.45618 258.521 3.6395C258.705 3.82281 258.889 2.35628 258.889 2.35628C258.889 2.35628 259.073 1.80633 259.257 2.17296C259.441 2.5396 259.441 2.35628 259.625 1.80633C259.809 1.25638 260.729 0.889745 260.729 0.889745C260.729 0.889745 264.225 1.07306 264.777 0.339794C265.329 -0.393473 271.585 0.156473 272.873 1.07306C274.161 1.98964 279.865 5.28936 278.945 8.03911C278.025 10.7889 274.713 16.8383 274.713 17.7549C274.713 18.6715 273.425 18.4882 273.057 17.5716C272.689 16.655 269.745 15.5551 269.745 15.0052C269.745 14.4552 268.089 9.32234 267.169 9.68897C266.249 10.0556 265.145 12.9887 264.777 12.4387C264.409 11.8888 263.673 8.58906 263.673 8.58906Z" fill="#3F3D56"/>
<path d="M289.065 33.7035C289.065 33.7035 281.521 22.7045 279.313 22.1546C277.105 21.6046 272.137 20.1381 272.137 20.1381C272.137 20.1381 267.169 20.8713 265.697 21.6046C264.225 22.3379 258.705 23.6211 258.521 25.8209C258.337 28.0207 259.993 49.1022 259.073 51.1187C258.153 53.1352 255.025 72.3835 256.497 72.0168C257.969 71.6502 256.865 66.884 263.305 66.7006C269.745 66.5173 273.241 62.6677 275.633 67.2506C278.025 71.8335 284.833 75.3166 284.833 75.3166C285.004 73.8386 285.25 72.3703 285.569 70.9169C286.121 68.3505 284.097 62.1177 284.097 62.1177C284.097 62.1177 284.281 47.6356 285.017 45.9858C285.753 44.3359 289.065 33.7035 289.065 33.7035Z" fill="#E73D47"/>
<path d="M286.305 33.3369L289.065 33.7035C289.065 33.7035 288.881 37.3699 289.617 38.4698C290.353 39.5697 291.641 45.2525 290.905 45.4358C290.169 45.6191 283.545 46.719 283.545 46.719L283.177 38.2864L286.305 33.3369Z" fill="#E73D47"/>
<path d="M256.497 39.9363C256.497 39.9363 254.657 51.8519 253.737 53.3185C252.816 54.785 248.216 75.3165 248.216 75.3165C248.216 75.3165 240.652 85.7967 244.332 85.6134C248.012 85.4301 251.896 76.0498 251.896 76.0498C251.896 76.0498 263.305 55.335 263.305 53.1352C263.305 50.9354 266.065 39.9363 266.065 39.9363L256.497 39.9363Z" fill="#FFB9B9"/>
<path d="M261.833 23.8044L258.521 25.0876C258.521 25.0876 254.289 40.1196 255.209 41.4028C256.129 42.6861 267.169 40.8529 267.353 40.3029C267.537 39.753 265.329 23.8044 261.833 23.8044Z" fill="#E73D47"/>
<path d="M29.3708 123.286C29.3708 141.147 40.6178 155.6 54.517 155.6L29.3708 123.286Z" fill="#46455B"/>
<path d="M54.517 155.6C54.517 137.539 67.0679 122.923 82.5785 122.923L54.517 155.6Z" fill="#E73D47"/>
<path d="M38.4818 124.906C38.4818 141.872 45.6538 155.6 54.517 155.6L38.4818 124.906Z" fill="#E73D47"/>
<path d="M54.517 155.6C54.517 132.522 69.0239 113.846 86.9518 113.846L54.517 155.6Z" fill="#46455B"/>
<path d="M49.2269 155.828C49.2269 155.828 52.7931 155.719 53.8678 154.956C54.9425 154.194 59.3534 153.283 59.62 154.506C59.8866 155.729 64.9793 160.588 60.9531 160.62C56.927 160.653 51.5981 159.995 50.5255 159.344C49.4528 158.693 49.2269 155.828 49.2269 155.828Z" fill="#A8A8A8"/>
<path opacity="0.2" d="M61.0249 160.194C56.9988 160.227 51.67 159.57 50.5973 158.919C49.7804 158.423 49.4549 156.644 49.346 155.823C49.2705 155.827 49.2269 155.828 49.2269 155.828C49.2269 155.828 49.4528 158.693 50.5255 159.344C51.5981 159.995 56.927 160.653 60.9531 160.62C62.1153 160.611 62.5167 160.199 62.4947 159.589C62.3332 159.957 61.89 160.188 61.0249 160.194Z" fill="black"/>
</svg>
