<svg width="300" height="223" viewBox="0 0 300 223" fill="none" xmlns="http://www.w3.org/2000/svg">
<g clip-path="url(#clip0)">
<path d="M215.883 131.88L218.243 130.423C218.467 130.281 218.688 130.129 218.916 129.987C213.854 129.117 209.242 126.544 205.842 122.695C202.441 118.845 200.458 113.95 200.219 108.82C200.046 105.291 200.713 101.772 202.165 98.552C203.518 95.539 205.515 92.8595 208.015 90.7022C210.516 88.5449 213.459 86.9624 216.638 86.0663L216.521 95.3547L221.623 85.2449C221.644 85.2416 221.666 85.2416 221.687 85.2449C224.643 85.1068 227.598 85.5525 230.383 86.5565C233.167 87.5605 235.727 89.1031 237.915 91.0963C240.103 93.0895 241.878 95.4942 243.136 98.1731C244.395 100.852 245.114 103.753 245.252 106.709C245.271 107.139 245.252 107.562 245.252 107.973C247.028 105.948 248.639 103.777 249.707 101.399C251.868 96.5806 251.918 91.1244 251.738 84.493C251.397 71.3502 250.831 58.1095 250.092 44.9066C244.765 44.315 239.823 41.843 236.154 37.9349C232.486 34.0267 230.331 28.9385 230.078 23.5844C230.046 22.8925 230.056 22.2132 230.078 21.5371C230.078 21.3697 230.078 21.1991 230.103 21.0316C230.147 20.3776 230.207 19.73 230.308 19.0918C230.308 18.9844 230.346 18.8833 230.365 18.7759C230.458 18.2346 230.569 17.6996 230.697 17.1709C230.748 16.975 230.795 16.776 230.849 16.5801C231.007 16.0051 231.165 15.4396 231.383 14.8804C231.449 14.694 231.528 14.5139 231.597 14.3307C231.759 13.92 231.932 13.5156 232.116 13.1144C232.214 12.9027 232.308 12.6942 232.413 12.4825C232.438 12.4288 232.46 12.3751 232.488 12.3214C234.867 7.62294 238.817 3.9066 243.652 1.81833C248.486 -0.269931 253.899 -0.598081 258.951 0.890927L258.799 12.9785L263.854 2.99504C268 5.36839 271.279 9.00527 273.212 13.3745C275.144 17.7437 275.629 22.6164 274.596 27.2808H274.621C274.586 27.4419 274.536 27.5967 274.498 27.7547C274.428 28.0516 274.353 28.3455 274.27 28.6393C274.163 29.0152 274.043 29.3849 273.92 29.7545C273.825 30.0294 273.733 30.3106 273.629 30.5823C273.477 30.9803 273.313 31.3689 273.13 31.7575C273.029 31.985 272.937 32.2156 272.814 32.4399C272.525 33.0213 272.21 33.5899 271.866 34.146C271.749 34.3387 271.617 34.5219 271.493 34.7147C271.253 35.0875 271.01 35.4571 270.748 35.8173C270.587 36.0384 270.413 36.2501 270.242 36.4681C269.996 36.784 269.743 37.0999 269.481 37.3874C269.295 37.5991 269.105 37.8076 268.909 38.0193C268.634 38.31 268.35 38.5912 268.056 38.8692C267.863 39.0556 267.667 39.242 267.465 39.4189C267.134 39.7127 266.786 39.9939 266.435 40.2688C266.258 40.4078 266.088 40.5531 265.905 40.6858C265.372 41.0818 264.821 41.4535 264.252 41.801C264.145 41.8642 264.031 41.9179 263.936 41.9811C263.462 42.2623 262.989 42.5245 262.48 42.7709C262.268 42.8752 262.047 42.9668 261.829 43.0648C261.421 43.248 261.011 43.4249 260.591 43.586C260.347 43.6777 260.098 43.763 259.848 43.8483C259.434 43.9904 259.014 44.12 258.584 44.2369C258.332 44.3064 258.082 44.3759 257.826 44.4359C257.365 44.5465 256.894 44.6381 256.42 44.7171C256.389 44.7171 256.36 44.7171 256.329 44.736C256.64 50.3049 256.917 55.8769 257.16 61.452C258.503 58.6934 260.397 56.2384 262.723 54.2376C265.05 52.2369 267.76 50.7326 270.689 49.817C273.618 48.9014 276.703 48.5938 279.755 48.9131C282.807 49.2324 285.761 50.1719 288.437 51.6739L284.453 62.5894L292.648 54.7195C297.035 58.7405 299.648 64.3373 299.915 70.2823C300.019 72.3683 299.826 74.4586 299.343 76.4904C298.313 80.8874 295.986 84.8735 292.663 87.9316C289.34 90.9897 285.175 92.9786 280.708 93.6403C276.241 94.302 271.678 93.606 267.611 91.6425C263.545 89.679 260.162 86.5387 257.902 82.629C257.902 83.1945 257.943 83.7632 257.959 84.3287C258.107 90.1798 258.294 97.4588 255.378 103.961C253.403 108.368 250.222 111.948 247.078 115.154C245.034 117.243 242.914 119.261 240.741 121.217C238.603 124.087 235.814 126.406 232.602 127.984C229.032 130.735 225.336 133.311 221.513 135.712L219.191 137.209C217.046 138.54 214.847 139.904 212.689 141.317C213.068 141.279 213.444 141.238 213.829 141.222C218.606 140.998 223.33 142.298 227.319 144.935C231.307 147.572 234.355 151.408 236.021 155.891L221.936 167.356L237.417 163.764C237.413 167.575 236.442 171.323 234.597 174.658C232.751 177.992 230.09 180.805 226.863 182.832C223.636 184.859 219.947 186.036 216.142 186.251C212.336 186.466 208.539 185.713 205.103 184.062C205.451 184.498 205.802 184.931 206.149 185.364C206.841 186.226 207.53 187.083 208.203 187.932C217.365 199.537 219.917 210.556 215.377 218.957L209.861 215.975C214.284 207.798 207.65 197.335 203.28 191.818C202.62 190.984 201.944 190.144 201.262 189.291C195.407 182.025 188.773 173.772 188.94 163.659C189.177 148.431 203.991 139.247 215.883 131.88Z" fill="#F2F2F2"/>
<path d="M143.907 222.306C223.385 222.306 287.814 219.335 287.814 215.671C287.814 212.007 223.385 209.037 143.907 209.037C64.4295 209.037 0 212.007 0 215.671C0 219.335 64.4295 222.306 143.907 222.306Z" fill="#3F3D56"/>
<path d="M260.167 213.198C261.115 211.457 260.041 209.324 258.815 207.77C257.589 206.215 256.095 204.611 256.126 202.623C256.171 199.78 259.188 198.102 261.602 196.595C263.389 195.476 265.038 194.149 266.514 192.643C267.134 192.063 267.646 191.379 268.028 190.621C268.524 189.509 268.511 188.245 268.479 187.026C268.374 182.969 268.174 178.917 267.879 174.869" stroke="#3F3D56" stroke-width="4" stroke-miterlimit="10"/>
<path d="M272.463 174.654C272.428 173.912 272.207 173.19 271.821 172.555C271.434 171.921 270.895 171.393 270.252 171.021L269.26 172.986L269.288 170.61C268.61 170.407 267.892 170.369 267.196 170.501C266.5 170.633 265.846 170.93 265.289 171.367C264.732 171.804 264.287 172.369 263.994 173.013C263.7 173.658 263.566 174.363 263.601 175.071C263.657 176.244 264.176 177.347 265.044 178.137C265.474 178.529 265.977 178.831 266.524 179.028C267.072 179.225 267.652 179.313 268.233 179.285C268.814 179.258 269.384 179.116 269.91 178.869C270.436 178.621 270.908 178.273 271.299 177.842C271.691 177.412 271.994 176.909 272.191 176.362C272.388 175.815 272.475 175.235 272.448 174.654H272.463Z" fill="#57B793"/>
<path d="M264.556 204.667C264.091 205.569 263.331 206.284 262.402 206.692C261.474 207.1 260.433 207.177 259.455 206.909C258.476 206.641 257.62 206.045 257.029 205.22C256.437 204.396 256.148 203.394 256.208 202.381C256.268 201.369 256.674 200.407 257.358 199.659C258.043 198.91 258.964 198.419 259.967 198.269C260.97 198.118 261.995 198.317 262.868 198.832C263.742 199.347 264.413 200.147 264.767 201.097L262 203.35L265.045 202.642C265.046 203.347 264.878 204.041 264.556 204.667Z" fill="#57B793"/>
<path d="M262.366 196.046C261.784 196.074 261.203 195.986 260.655 195.789C260.107 195.592 259.603 195.288 259.173 194.896C258.743 194.503 258.394 194.03 258.147 193.502C257.9 192.975 257.76 192.403 257.735 191.822C257.699 191.128 257.83 190.436 258.117 189.803C258.382 189.21 258.775 188.683 259.266 188.258C259.757 187.834 260.335 187.522 260.96 187.345L260.938 189.174L261.943 187.184C263.118 187.129 264.267 187.543 265.137 188.335C266.006 189.127 266.526 190.233 266.581 191.408C266.636 192.583 266.221 193.732 265.429 194.601C264.637 195.471 263.532 195.991 262.357 196.046H262.366Z" fill="#57B793"/>
<path d="M273.13 188.871C271.957 188.926 270.81 188.513 269.941 187.723C269.073 186.932 268.554 185.829 268.498 184.656C268.443 183.483 268.856 182.336 269.646 181.468C270.437 180.599 271.54 180.08 272.713 180.025C273.542 179.984 274.366 180.179 275.089 180.587L274.305 182.735L275.916 181.187C276.781 181.978 277.297 183.079 277.351 184.249C277.371 184.659 277.333 185.069 277.237 185.468C277.016 186.405 276.495 187.244 275.754 187.858C275.013 188.472 274.091 188.828 273.13 188.871Z" fill="#57B793"/>
<path opacity="0.1" d="M271.866 175.823C270.843 175.936 269.847 176.256 268.821 176.319C267.794 176.382 266.666 176.136 266.015 175.336C265.664 174.907 265.491 174.363 265.194 173.896C264.914 173.459 264.531 173.097 264.078 172.844C263.811 173.403 263.664 174.012 263.647 174.632C263.63 175.251 263.744 175.868 263.98 176.441C264.217 177.014 264.571 177.53 265.021 177.958C265.47 178.385 266.004 178.713 266.588 178.92C267.172 179.128 267.793 179.21 268.412 179.162C269.03 179.114 269.631 178.936 270.176 178.641C270.721 178.346 271.198 177.939 271.575 177.448C271.953 176.956 272.223 176.391 272.369 175.788C272.198 175.794 272.031 175.807 271.866 175.823Z" fill="black"/>
<path opacity="0.1" d="M273.13 188.871C272.365 188.91 271.603 188.749 270.919 188.405C270.235 188.061 269.652 187.546 269.227 186.909C268.802 186.272 268.549 185.536 268.494 184.772C268.439 184.008 268.583 183.243 268.912 182.552C269.264 182.79 269.567 183.093 269.803 183.446C270.119 183.923 270.309 184.473 270.681 184.912C271.37 185.724 272.552 185.989 273.623 185.939C274.694 185.888 275.724 185.588 276.782 185.49C276.927 185.49 277.079 185.465 277.228 185.462C277.008 186.398 276.489 187.238 275.75 187.853C275.01 188.468 274.091 188.825 273.13 188.871Z" fill="black"/>
<path opacity="0.1" d="M262.366 196.046C261.784 196.074 261.203 195.986 260.655 195.789C260.107 195.592 259.603 195.288 259.173 194.896C258.743 194.503 258.394 194.03 258.147 193.502C257.9 192.975 257.76 192.403 257.735 191.822C257.699 191.128 257.83 190.436 258.117 189.803C258.485 190.043 258.806 190.348 259.065 190.703C259.409 191.19 259.624 191.749 260.012 192.198C260.761 193.032 262.019 193.325 263.153 193.297C264.287 193.269 265.308 193.003 266.401 192.921C266.131 193.793 265.599 194.561 264.877 195.12C264.155 195.679 263.278 196.003 262.366 196.046Z" fill="black"/>
<path opacity="0.1" d="M264.556 204.667C264.317 205.198 263.976 205.677 263.553 206.076C263.129 206.475 262.631 206.787 262.087 206.994C261.543 207.2 260.964 207.298 260.382 207.281C259.8 207.263 259.227 207.132 258.697 206.893C258.166 206.655 257.687 206.314 257.288 205.89C256.889 205.467 256.577 204.969 256.37 204.425C256.164 203.881 256.066 203.301 256.083 202.719C256.101 202.138 256.232 201.565 256.471 201.034C256.835 201.276 257.162 201.569 257.444 201.903C257.864 202.418 258.142 202.999 258.632 203.483C259.539 204.37 261.001 204.746 262.303 204.772C263.055 204.782 263.807 204.747 264.556 204.667Z" fill="black"/>
<path d="M253.482 211.191C253.482 211.191 256.979 211.084 258.035 210.332C259.09 209.58 263.405 208.683 263.68 209.89C263.955 211.097 268.941 215.892 264.988 215.911C261.036 215.93 255.807 215.28 254.755 214.648C253.703 214.016 253.482 211.191 253.482 211.191Z" fill="#656380"/>
<path opacity="0.2" d="M265.058 215.491C261.109 215.523 255.877 214.859 254.825 214.227C254.025 213.741 253.703 211.988 253.599 211.179H253.482C253.482 211.179 253.703 214 254.746 214.654C255.788 215.308 261.027 215.943 264.979 215.918C266.119 215.918 266.514 215.501 266.492 214.9C266.344 215.257 265.908 215.485 265.058 215.491Z" fill="black"/>
<path d="M61.4204 203.451C59.1268 199.205 61.7364 194.005 64.7188 190.22C67.7012 186.435 71.3534 182.498 71.2744 177.674C71.1606 170.743 63.8057 166.651 57.9294 162.977C53.5689 160.25 49.5465 157.017 45.9461 153.344C44.5023 151.869 43.1027 150.295 42.2623 148.412C41.0491 145.702 41.0807 142.621 41.1597 139.652C41.4124 129.752 41.9011 119.872 42.6256 110.011" stroke="#3F3D56" stroke-width="4" stroke-miterlimit="10"/>
<path d="M31.4511 109.471C31.5376 107.662 32.0771 105.904 33.0199 104.359C33.9628 102.813 35.2788 101.529 36.8472 100.624L39.2673 105.411L39.1946 99.6167C41.3932 98.9688 43.7407 99.0365 45.8983 99.8098C48.0559 100.583 49.9119 102.022 51.1983 103.919C52.4847 105.816 53.1349 108.073 53.0551 110.364C52.9752 112.654 52.1695 114.86 50.7541 116.663C49.3388 118.466 47.3871 119.772 45.1809 120.393C42.9747 121.015 40.6281 120.919 38.48 120.119C36.3319 119.32 34.4934 117.859 33.23 115.946C31.9666 114.034 31.3436 111.77 31.4511 109.48V109.471Z" fill="#57B793"/>
<path d="M50.7293 182.628C51.8161 184.746 53.5721 186.446 55.7243 187.463C57.8766 188.481 60.3047 188.759 62.6313 188.255C64.958 187.751 67.0529 186.492 68.5907 184.675C70.1285 182.857 71.023 180.583 71.1353 178.205C71.2108 176.71 70.9708 175.216 70.4308 173.82C69.6415 171.772 68.2477 170.013 66.4346 168.777C64.6216 167.54 62.4752 166.885 60.2806 166.897C58.0861 166.91 55.9474 167.59 54.1488 168.848C52.3501 170.105 50.9768 171.88 50.2112 173.937L56.9626 179.428L49.5351 177.699C49.532 179.414 49.9416 181.105 50.7293 182.628Z" fill="#57B793"/>
<path d="M56.0654 161.644C58.7159 161.765 61.3185 160.907 63.3776 159.234C65.4366 157.56 66.8085 155.188 67.2319 152.569C67.6553 149.95 67.1007 147.266 65.6737 145.029C64.2467 142.792 62.047 141.158 59.4933 140.438L59.5501 144.89L57.1175 140.047H57.089C54.2246 139.913 51.4245 140.923 49.3046 142.854C47.1846 144.784 45.9186 147.478 45.785 150.343C45.6513 153.207 46.661 156.007 48.5919 158.127C50.5228 160.247 53.2168 161.513 56.0812 161.647L56.0654 161.644Z" fill="#57B793"/>
<path d="M29.8241 144.182C31.4977 144.264 33.1673 143.955 34.7011 143.281C36.235 142.606 37.5911 141.585 38.6625 140.297C39.7339 139.008 40.4912 137.489 40.8746 135.858C41.258 134.226 41.257 132.529 40.8718 130.898C40.4865 129.267 39.7275 127.749 38.6547 126.461C37.5819 125.174 36.2246 124.154 34.69 123.482C33.1554 122.809 31.4854 122.502 29.812 122.586C28.1385 122.669 26.5073 123.141 25.0472 123.962L26.9428 129.197L23.0284 125.416C21.982 126.368 21.1336 127.517 20.5319 128.798C19.9301 130.078 19.5868 131.465 19.5215 132.878C19.4714 133.878 19.5639 134.88 19.7964 135.854C20.3338 138.144 21.6037 140.197 23.4135 141.7C25.2233 143.203 27.474 144.074 29.8241 144.182Z" fill="#57B793"/>
<path opacity="0.1" d="M32.9044 112.352C35.4002 112.627 37.8266 113.401 40.3288 113.556C42.831 113.71 45.5827 113.113 47.1656 111.167C48.0186 110.118 48.4451 108.791 49.1654 107.648C49.8479 106.582 50.7835 105.702 51.8888 105.085C52.577 106.455 52.966 107.956 53.0299 109.488C53.0938 111.02 52.8312 112.548 52.2594 113.97C51.6877 115.393 50.82 116.677 49.7138 117.739C48.6076 118.801 47.2884 119.615 45.8435 120.127C44.3986 120.64 42.8612 120.84 41.3333 120.713C39.8055 120.586 38.322 120.135 36.9815 119.391C35.641 118.647 34.4741 117.627 33.5582 116.397C32.6422 115.168 31.9983 113.758 31.6691 112.26C32.0893 112.279 32.5 112.308 32.9044 112.352Z" fill="black"/>
<path opacity="0.1" d="M29.824 144.182C31.6869 144.268 33.5403 143.871 35.2044 143.029C36.8685 142.188 38.2868 140.93 39.3216 139.379C40.3563 137.827 40.9725 136.035 41.1102 134.175C41.248 132.315 40.9026 130.451 40.1076 128.765C39.2493 129.342 38.5111 130.08 37.934 130.938C37.1631 132.101 36.6987 133.444 35.792 134.511C34.1081 136.489 31.2331 137.137 28.6235 137.02C26.0139 136.903 23.4959 136.157 20.8989 135.92C20.5388 135.889 20.1723 135.864 19.809 135.854C20.3457 138.142 21.6138 140.193 23.421 141.696C25.2283 143.199 27.4762 144.072 29.824 144.182Z" fill="black"/>
<path opacity="0.1" d="M56.0654 161.644C57.91 161.73 59.7462 161.343 61.3985 160.518C63.0509 159.694 64.4644 158.459 65.5043 156.933C66.5441 155.407 67.1755 153.64 67.3383 151.8C67.5011 149.961 67.1899 148.11 66.4343 146.425C65.5441 147.017 64.7699 147.766 64.1501 148.637C63.3097 149.822 62.7852 151.186 61.8027 152.279C59.9798 154.311 56.9152 155.028 54.1508 154.962C51.4749 154.905 48.8968 154.248 46.2367 154.042C46.8953 156.166 48.1922 158.035 49.9508 159.395C51.7095 160.755 53.8445 161.54 56.0654 161.644Z" fill="black"/>
<path opacity="0.1" d="M50.7292 182.628C51.8161 184.746 53.572 186.446 55.7243 187.463C57.8766 188.481 60.3046 188.759 62.6313 188.255C64.9579 187.751 67.0529 186.492 68.5907 184.675C70.1285 182.857 71.023 180.583 71.1353 178.205C71.2108 176.71 70.9708 175.216 70.4308 173.82C69.5414 174.404 68.7429 175.116 68.0613 175.933C67.0345 177.197 66.3553 178.606 65.1674 179.775C62.9558 181.942 59.389 182.84 56.2138 182.934C54.3812 182.941 52.5498 182.838 50.7292 182.628Z" fill="black"/>
<path d="M136.236 209.763L94.5333 218.294L93.5855 218.199L56.9374 214.502V168.06L101.8 160.478L134.341 164.269L134.35 164.474L134.353 164.576L136.236 209.763Z" fill="#E73D47"/>
<path opacity="0.1" d="M136.236 209.763L94.5334 218.294L93.5856 218.199V170.588L134.35 164.474L136.236 209.763Z" fill="black"/>
<path opacity="0.05" d="M134.353 164.576L134.341 164.585L93.5855 170.588L56.9374 168.06L101.8 160.478L134.341 164.269L134.35 164.474L134.353 164.576Z" fill="black"/>
<path d="M182.047 211.659L140.344 220.189L139.396 220.094L102.748 216.398V169.956L147.61 162.374L180.151 166.165L180.161 166.37L180.164 166.471L182.047 211.659Z" fill="#3F3D56"/>
<path opacity="0.1" d="M182.047 211.659L140.344 220.189L139.396 220.094V172.483L180.161 166.37L182.047 211.659Z" fill="#E73D47"/>
<path opacity="0.05" d="M180.164 166.471L180.151 166.481L139.396 172.483L102.748 169.956L147.61 162.374L180.151 166.165L180.161 166.37L180.164 166.471Z" fill="black"/>
<path d="M153.297 166.165L111.594 174.695L110.646 174.6L73.9977 170.904V124.462L118.86 116.879L151.401 120.67L151.411 120.876L151.414 120.977L153.297 166.165Z" fill="#3F3D56"/>
<path opacity="0.1" d="M153.297 166.165L111.594 174.695L110.646 174.6V126.989L151.411 120.876L153.297 166.165Z" fill="#E73D47"/>
<path opacity="0.05" d="M151.414 120.977L151.401 120.986L110.646 126.989L73.9977 124.462L118.86 116.879L151.401 120.67L151.411 120.876L151.414 120.977Z" fill="black"/>
<path d="M176.992 168.111L155.227 172.565L154.731 172.515L135.605 170.585V146.346L159.018 142.388L176.003 144.369L176.009 144.476V144.526L176.992 168.111Z" fill="#3F3D56"/>
<path opacity="0.1" d="M176.992 168.111L155.227 172.565L154.731 172.515V147.667L176.009 144.476L176.992 168.111Z" fill="black"/>
<path opacity="0.05" d="M176.009 144.526L176.003 144.533L154.731 147.667L135.605 146.346L159.018 142.388L176.003 144.369L176.009 144.476V144.526Z" fill="black"/>
<path d="M118.544 121.037L96.7795 125.488L96.2835 125.441L77.157 123.511V99.2723L100.571 95.3137L117.555 97.2946L117.562 97.402V97.4525L118.544 121.037Z" fill="#3F3D56"/>
<path opacity="0.1" d="M118.544 121.037L96.7796 125.488L96.2836 125.441V100.593L117.562 97.402L118.544 121.037Z" fill="black"/>
<path opacity="0.05" d="M117.562 97.4525L117.555 97.4588L96.2835 100.593L77.157 99.2723L100.571 95.3137L117.555 97.2946L117.562 97.402V97.4525Z" fill="black"/>
<path d="M156.772 120.089L135.007 124.541L134.511 124.493L115.385 122.563V98.3245L138.799 94.3659L155.783 96.3468L155.789 96.4542V96.5047L156.772 120.089Z" fill="#E73D47"/>
<path opacity="0.1" d="M156.772 120.089L135.007 124.541L134.511 124.493V99.6451L155.79 96.4542L156.772 120.089Z" fill="black"/>
<path opacity="0.05" d="M155.79 96.5047L155.783 96.5111L134.511 99.6451L115.385 98.3245L138.799 94.3659L155.783 96.3468L155.79 96.4542V96.5047Z" fill="black"/>
<path d="M168.146 95.7623L146.381 100.214L145.885 100.166L126.758 98.236V73.9977L150.172 70.0391L167.157 72.02L167.163 72.1274V72.1779L168.146 95.7623Z" fill="#3F3D56"/>
<path opacity="0.1" d="M168.146 95.7623L146.381 100.214L145.885 100.166V75.3183L167.163 72.1274L168.146 95.7623Z" fill="#E73D47"/>
<path opacity="0.05" d="M167.163 72.1779L167.157 72.1842L145.885 75.3183L126.758 73.9977L150.172 70.0391L167.157 72.02L167.163 72.1274V72.1779Z" fill="black"/>
<path d="M182.969 46.2114C182.739 48.265 181.172 49.9205 180.59 51.8982C179.718 54.8838 181.222 58.0905 183.295 60.4284C184.965 62.286 186.987 63.7937 189.244 64.8643C191.501 65.9348 193.948 66.5468 196.444 66.6649C197.177 66.728 197.915 66.6475 198.617 66.4279C199.243 66.1734 199.806 65.7878 200.27 65.2969C201.824 63.733 202.661 61.5689 202.993 59.3858C203.325 57.2027 203.198 54.9817 203.069 52.7797C203.069 52.3239 202.985 51.8721 202.822 51.4464C202.611 51.0416 202.32 50.6837 201.966 50.3944C200.846 49.3646 199.611 48.4668 198.286 47.7184C197.717 47.4025 197.107 47.0866 196.744 46.54C196.495 46.1048 196.332 45.6251 196.267 45.1278L195.859 43.0553C195.787 42.4577 195.583 41.8836 195.262 41.3745C194.545 40.4077 193.171 40.2751 191.967 40.2277L187.544 40.0539C186.17 40.0002 184.362 39.6053 183.02 39.877C181.756 40.1266 182.183 41.2829 182.41 42.3318C182.739 43.6004 182.927 44.9015 182.969 46.2114Z" fill="#FFC0C6"/>
<path opacity="0.1" d="M182.969 46.2114C182.739 48.265 181.172 49.9205 180.59 51.8982C179.718 54.8838 181.222 58.0905 183.295 60.4284C184.965 62.286 186.987 63.7937 189.244 64.8643C191.501 65.9348 193.948 66.5468 196.444 66.6649C197.177 66.728 197.915 66.6475 198.617 66.4279C199.243 66.1734 199.806 65.7878 200.27 65.2969C201.824 63.733 202.661 61.5689 202.993 59.3858C203.325 57.2027 203.198 54.9817 203.069 52.7797C203.069 52.3239 202.985 51.8721 202.822 51.4464C202.611 51.0416 202.32 50.6837 201.966 50.3944C200.846 49.3646 199.611 48.4668 198.286 47.7184C197.717 47.4025 197.107 47.0866 196.744 46.54C196.495 46.1048 196.332 45.6251 196.267 45.1278L195.859 43.0553C195.787 42.4577 195.583 41.8836 195.262 41.3745C194.545 40.4077 193.171 40.2751 191.967 40.2277L187.544 40.0539C186.17 40.0002 184.362 39.6053 183.02 39.877C181.756 40.1266 182.183 41.2829 182.41 42.3318C182.739 43.6004 182.927 44.9015 182.969 46.2114Z" fill="black"/>
<path d="M211.059 138.704L209.182 159.277C208.692 164.673 208.193 170.092 207.233 175.418C206.917 177.254 206.512 179.08 206.051 180.89C204.768 185.917 202.908 190.83 202.307 195.982C202.288 196.131 202.273 196.298 202.257 196.434C202.134 197.572 202.026 198.722 201.625 199.783C201.309 200.57 200.864 201.287 200.538 202.064C199.906 203.618 199.805 205.337 199.726 207.021C197.449 205.735 194.955 204.879 192.368 204.494C191.104 204.307 189.73 204.178 188.893 203.23C187.945 202.2 188.056 200.623 188.214 199.24C188.711 194.943 189.206 190.648 189.699 186.356C189.863 184.509 190.18 182.679 190.646 180.884C190.817 180.287 191.022 179.699 191.231 179.112C191.518 178.303 191.809 177.494 192.027 176.663C192.329 175.328 192.538 173.974 192.652 172.61C193.161 168.288 193.774 163.975 194.311 159.656L194.34 159.429C195.145 152.883 195.758 146.305 195.581 139.712C195.556 138.735 195.515 137.759 195.452 136.78C195.363 135.361 195.234 134.609 196.399 133.722C197.698 132.742 199.407 132.057 200.892 131.415C201.691 131.068 210.493 127.94 210.686 128.629C211.095 130.092 211.307 131.602 211.318 133.121C211.336 134.986 211.249 136.849 211.059 138.704Z" fill="#605D82"/>
<path opacity="0.1" d="M207.233 175.418C206.917 177.254 206.512 179.08 206.051 180.89C204.768 185.917 202.908 190.83 202.307 195.982C202.288 196.131 202.273 196.298 202.257 196.434C198.333 190.83 195.028 184.802 191.199 179.137C191.487 178.328 191.777 177.519 191.995 176.688C192.309 175.346 192.529 173.983 192.653 172.61C193.161 168.288 193.774 163.975 194.311 159.656L194.34 159.429C194.561 160.346 194.879 161.236 195.287 162.086C197.859 167.312 203.969 169.953 206.958 174.954C207.057 175.11 207.149 175.265 207.233 175.418Z" fill="black"/>
<path d="M175.393 129.475C175.523 133.665 176.192 137.819 176.862 141.958L178.243 150.488C178.998 155.164 179.788 159.931 181.999 164.117C183.655 167.252 186.037 169.924 188.195 172.733C193.496 179.639 197.48 187.465 202.506 194.573C203.969 196.64 206.057 198.876 208.55 198.444C210.187 198.162 211.375 196.798 212.657 195.749C214.174 194.51 216 193.603 217.194 192.049C218.388 190.495 218.622 187.917 217.005 186.811C216.452 186.435 215.779 186.293 215.153 186.053C212.648 185.105 211.024 182.653 209.994 180.176C208.964 177.699 208.335 175.042 206.961 172.739C203.972 167.738 197.859 165.097 195.287 159.868C193.847 156.943 193.708 153.55 193.6 150.305L193.319 141.993C193.287 141.083 193.265 140.138 193.635 139.307C194.618 137.096 197.587 136.887 199.995 136.606C202.725 136.287 205.37 135.453 207.789 134.148C209.176 133.399 210.528 132.445 211.264 131.055C211.94 129.791 212.032 128.303 212.111 126.869L212.945 111.802C213.017 110.507 213.081 109.164 212.629 107.951C211.482 104.899 207.628 103.901 204.37 104.046C198.311 104.318 192.719 106.924 186.994 108.687C185.576 109.123 184.151 109.515 182.688 109.809C181.424 110.065 179.845 109.96 178.631 110.371C176.458 111.104 176.511 115.862 176.205 117.833C175.573 121.68 175.301 125.578 175.393 129.475Z" fill="#605D82"/>
<path d="M207.729 199.082C208.263 199.622 208.436 200.412 208.575 201.157C209.348 205.295 209.75 209.494 209.776 213.703C209.741 214.096 209.819 214.49 210 214.84C210.152 215.048 210.356 215.211 210.591 215.314C212.136 216.05 213.927 215.024 215.216 213.896C217.602 211.807 219.62 209.002 219.756 205.833C219.791 205.018 219.699 204.193 219.842 203.388C220.05 202.194 220.748 201.154 221.361 200.112C222.41 198.335 223.258 196.446 223.889 194.482C224.123 193.742 224.28 192.814 223.699 192.299C223.496 192.137 223.263 192.016 223.014 191.942L216.031 189.351C215.425 189.127 213.921 192.991 213.684 193.414C213.1 194.447 212.518 195.031 211.346 195.272C210.174 195.512 208.727 195.164 207.609 195.761C205.713 196.769 206.658 198.004 207.729 199.082Z" fill="#535070"/>
<path d="M196.962 201.467C196.832 201.209 196.652 200.98 196.431 200.794C196.108 200.589 195.741 200.464 195.36 200.431C194.033 200.203 192.46 200.055 191.54 201.044C190.681 201.969 190.829 203.476 190.112 204.519C189.885 204.835 189.575 205.119 189.379 205.467C189.136 205.999 189.027 206.582 189.063 207.166C189.026 208.775 188.988 210.389 189.101 211.994C189.193 213.34 189.417 214.752 190.261 215.807C191.613 217.501 194.052 217.744 196.213 217.851L197.966 217.943C198.449 217.999 198.937 217.954 199.401 217.81C199.688 217.678 199.946 217.489 200.159 217.255C200.371 217.021 200.535 216.747 200.639 216.449C201.552 214.18 200.108 211.738 199.217 209.463C198.191 206.844 198.374 203.941 196.962 201.467Z" fill="#535070"/>
<path d="M182.464 34.6325C182.441 34.4026 182.475 34.1706 182.562 33.9564C182.817 33.5046 183.487 33.6405 183.993 33.7542C186.024 34.266 188.166 33.8016 190.261 33.9217C192.355 34.0417 194.712 35.0875 195.132 37.141C196.652 36.0656 197.962 34.7206 198.996 33.1729C199.578 32.3041 200.083 31.3089 200.004 30.2663C199.89 28.7625 198.63 27.6378 197.477 26.6837L194.001 23.8403C193.544 23.4203 193.015 23.0845 192.441 22.8482C191.638 22.5734 190.76 22.7061 189.913 22.7061C187.386 22.7061 184.675 21.5529 182.423 22.7061C181.475 23.1894 180.77 24.0204 180.088 24.8291L176.982 28.5066C176.747 28.741 176.575 29.0312 176.483 29.3501C176.395 29.7988 176.625 30.2411 176.707 30.6928C176.853 31.5143 176.499 32.3926 176.771 33.1824C177.222 34.4904 178.815 34.6768 179.788 35.4287C180.148 35.7067 180.717 36.6576 181.149 36.645C181.911 36.6292 182.441 35.2391 182.464 34.6325Z" fill="#3F3D56"/>
<path d="M187.733 45.4785C193.23 45.4785 197.685 41.0229 197.685 35.5266C197.685 30.0303 193.23 25.5747 187.733 25.5747C182.237 25.5747 177.781 30.0303 177.781 35.5266C177.781 41.0229 182.237 45.4785 187.733 45.4785Z" fill="#FFC0C6"/>
<path d="M190.065 57.3038C189.728 56.3393 189.093 55.5067 188.252 54.9264C187.411 54.3461 186.407 54.0479 185.386 54.075C185.093 54.1309 184.79 54.0922 184.52 53.9644C184.367 53.8478 184.245 53.6961 184.163 53.5221C183.56 52.4329 183.074 51.2828 182.713 50.0911C182.555 49.5635 182.337 48.9411 181.803 48.8052C181.374 48.6947 180.934 48.9727 180.647 49.3107C180.392 49.6735 180.116 50.0206 179.819 50.3501C178.555 51.4686 176.344 50.4481 175.02 51.4749C174.802 51.6423 174.622 51.8572 174.388 52.012C174.161 52.1506 173.915 52.2569 173.658 52.3279C171.089 53.1639 168.57 54.1481 166.114 55.2755C166.999 60.5958 167.902 66.0173 169.975 70.9932C170.96 73.3627 172.076 75.6848 172.865 78.1269C174.616 83.5389 174.692 89.3299 174.714 95.0199C174.714 98.9121 174.714 102.887 173.45 106.57C173.166 107.404 172.818 108.232 172.739 109.098C172.66 109.963 172.919 110.943 173.63 111.461C174.042 111.732 174.514 111.898 175.004 111.944C177.187 112.26 179.386 111.685 181.535 111.186C187.294 109.853 193.17 109.088 199.031 108.343L208.857 107.079C209.561 107.03 210.251 106.851 210.891 106.551C212.689 105.569 212.859 102.864 211.741 101.146C211.207 100.321 210.452 99.6451 210 98.7731C209.548 97.9012 209.514 96.6753 210.288 96.0719C211.867 94.8398 211.393 92.5556 211.469 90.5589C211.68 84.9732 211.651 79.3917 211.384 73.8145C211.304 72.6579 211.285 71.4978 211.327 70.3392C211.438 68.3741 211.924 66.4501 212.411 64.5387L215.396 52.786C214.616 51.5539 213.122 50.7703 211.709 50.4165C210.297 50.0627 208.822 49.9584 207.429 49.5256C204.585 48.641 202.032 46.3978 199.053 46.6064C198.827 46.6104 198.605 46.6643 198.402 46.7643C197.733 47.1466 197.837 48.1134 197.796 48.8842C197.701 50.5934 196.444 52.0183 195.06 53.0198C193.676 54.0213 192.09 54.7479 190.817 55.8884C190.596 56.0551 190.414 56.2682 190.284 56.5128C190.154 56.7573 190.079 57.0273 190.065 57.3038Z" fill="#3F3D56"/>
<path d="M150.634 68.4531C149.974 68.8816 149.274 69.2426 148.542 69.5304C147.847 69.8053 147.105 70.0233 146.536 70.5035C146.254 70.7478 146.018 71.0397 145.838 71.366C145.501 71.9634 145.331 72.6402 145.345 73.3258C145.359 74.0114 145.557 74.6807 145.917 75.2638C146.278 75.847 146.789 76.3226 147.396 76.6412C148.003 76.9597 148.685 77.1095 149.37 77.0749C150.283 77.0275 151.145 76.6579 151.983 76.2945L159.003 73.2395C160.19 72.7245 161.473 72.1242 162.036 70.9553C162.1 70.8458 162.125 70.7175 162.105 70.592C162.051 70.4542 161.947 70.3417 161.814 70.276C160.232 69.2468 158.849 67.9412 157.729 66.4217C157.442 66.0299 157.098 65.1074 156.68 64.8704C155.196 64.0458 151.825 67.6822 150.634 68.4531Z" fill="#FFC0C6"/>
<path d="M225.674 65.973L228.261 68.9302C228.817 69.562 229.373 70.1939 229.879 70.8763C231.123 72.5895 232.12 74.4686 232.842 76.4588C233.405 77.9342 233.872 79.5076 233.676 81.0746C233.545 81.878 233.328 82.665 233.029 83.422C232.555 84.8773 231.966 86.2929 231.269 87.6555C230.687 88.6894 230.029 89.6788 229.301 90.6158C227.297 93.2713 225.104 95.779 222.739 98.1192C221.854 98.9943 221.475 100.413 221.099 101.594C220.388 103.778 218.698 105.48 217.065 107.092C216.539 107.647 215.958 108.147 215.33 108.583C214.39 109.19 213.29 109.502 212.171 109.48C211.683 109.483 211.199 109.383 210.752 109.186C209.634 108.656 209.065 107.363 208.948 106.131C208.845 105.012 209.032 103.884 209.492 102.858C210.977 99.5693 214.79 98.1444 217.485 95.7434C219.064 94.3375 220.274 92.5682 221.469 90.8211C222.278 89.7291 222.953 88.5444 223.481 87.2922C224.081 85.6841 223.848 83.7821 224.375 82.1519C224.596 81.46 225.007 80.8377 225.231 80.1521C225.456 79.4665 225.532 78.6546 225.111 78.0638C224.797 77.6861 224.394 77.3911 223.939 77.2044C222.217 76.3325 220.29 75.2077 219.962 73.3027C219.83 72.2477 220.106 71.1822 220.733 70.3234C221.356 69.4756 222.085 68.7112 222.903 68.0487C223.652 67.3726 224.919 66.6239 225.674 65.973Z" fill="#FFC0C6"/>
<path d="M148.972 72.5792C148.517 71.6567 147.945 70.7152 147.022 70.2571C146.573 70.0634 146.09 69.9635 145.601 69.9635C145.112 69.9635 144.628 70.0634 144.179 70.2571C143.285 70.6436 142.448 71.1495 141.689 71.7609L139.459 73.4069C138.953 73.7387 138.506 74.1519 138.135 74.6296C137.781 75.2092 137.547 75.8537 137.446 76.5252C137.131 78.0638 136.875 79.6466 137.096 81.2041C137.45 83.7316 138.966 85.9178 140.634 87.8387C141.677 89.0329 142.966 90.2398 144.552 90.2935C145.237 90.3156 145.999 90.0439 146.283 89.4215C146.382 89.1742 146.435 88.9107 146.438 88.6443C146.608 85.8388 145.604 83.0997 144.435 80.5438C144.119 79.8488 143.778 79.1285 143.803 78.3671C143.793 78.2378 143.827 78.1089 143.898 78.0006C143.998 77.8955 144.132 77.8294 144.277 77.8142C145.879 77.4982 148.64 78.743 149.761 76.9643C150.488 75.789 149.49 73.6249 148.972 72.5792Z" fill="#FFC0C6"/>
<path d="M181.939 31.5016C181.919 31.2715 181.954 31.0398 182.04 30.8255C182.296 30.3706 182.966 30.5096 183.471 30.6233C185.503 31.1351 187.645 30.6707 189.74 30.7908C191.834 30.9108 194.188 31.9566 194.611 34.0101C196.129 32.933 197.439 31.5883 198.475 30.042C199.056 29.1701 199.562 28.1749 199.483 27.1323C199.369 25.6284 198.105 24.5037 196.955 23.5528L193.48 20.7094C193.024 20.2895 192.496 19.9537 191.923 19.7173C191.117 19.4425 190.242 19.5752 189.395 19.5752C186.868 19.5752 184.157 18.422 181.904 19.5752C180.957 20.0586 180.252 20.8895 179.57 21.6982L176.461 25.3757C176.227 25.6106 176.057 25.9008 175.965 26.2192C175.876 26.6679 176.107 27.1102 176.189 27.562C176.335 28.3834 175.981 29.2617 176.252 30.0483C176.704 31.3595 178.297 31.5459 179.27 32.2978C179.63 32.5758 180.198 33.5268 180.631 33.5141C181.38 33.4983 181.911 32.1082 181.939 31.5016Z" fill="#3F3D56"/>
<path d="M160.803 58.7729C160.402 59.0334 160.049 59.3615 159.761 59.7428C159.397 60.2957 159.322 61.0066 159.009 61.5752C158.339 62.82 156.769 63.2655 155.793 64.2859C155.634 64.4254 155.524 64.6111 155.477 64.8167C155.471 65.0946 155.564 65.3656 155.739 65.5813L160.459 72.9994C162.039 73.1384 163.536 72.1527 165.109 72.2854C165.694 72.3328 166.297 72.5349 166.86 72.3612C167.262 72.1821 167.639 71.9517 167.981 71.6756C168.929 71.0816 170.168 71.0122 170.954 70.2318C171.741 69.4514 171.807 68.3046 171.798 67.2399C171.812 66.3159 171.718 65.3933 171.517 64.4913C170.822 61.6479 168.645 59.4553 167.28 56.9342C166.613 55.7052 166.253 54.988 164.847 55.8316C163.441 56.6751 162.133 57.7998 160.803 58.7729Z" fill="#3F3D56"/>
<path d="M218.117 55.0228C219.004 55.5988 219.804 56.2988 220.492 57.1016C221.21 58.0273 221.617 59.1647 222.309 60.1125C223.001 61.0603 223.889 61.7427 224.647 62.5894C225.8 63.8721 226.58 65.4328 227.345 66.984C225.473 69.4192 223.434 71.7206 221.241 73.8713C220.997 74.159 220.674 74.3696 220.312 74.4779C220.067 74.5043 219.819 74.4693 219.591 74.3761C219.363 74.2829 219.161 74.1344 219.004 73.944C218.663 73.5902 218.423 73.1479 218.098 72.7782C217.331 71.9875 216.309 71.4939 215.213 71.3849C214.126 71.2791 213.033 71.2632 211.943 71.3376C211.704 71.3659 211.462 71.3253 211.245 71.2207C211.084 71.1099 210.953 70.9598 210.866 70.7847C209.602 68.6111 209.997 65.8814 210.449 63.3982L211.482 57.7114C211.633 56.6256 211.923 55.5638 212.345 54.5521C212.736 53.7148 213.608 52.2931 214.689 52.5459C215.769 52.7986 217.204 54.3657 218.117 55.0228Z" fill="#3F3D56"/>
<path d="M128.022 96.7101L106.258 101.162L105.762 101.114L86.635 99.1839V74.9455L110.049 70.9869L127.033 72.9678L127.04 73.0752V73.1257L128.022 96.7101Z" fill="#E73D47"/>
<path opacity="0.1" d="M128.022 96.7101L106.258 101.162L105.762 101.114V76.2661L127.04 73.0752L128.022 96.7101Z" fill="black"/>
<path opacity="0.05" d="M127.04 73.1257L127.033 73.1321L105.762 76.2661L86.635 74.9455L110.049 70.9869L127.033 72.9678L127.04 73.0752V73.1257Z" fill="black"/>
<path d="M139.396 72.6992L117.631 77.1539L117.135 77.1033L98.0085 75.173V50.9346L121.422 46.976L138.407 48.9569L138.413 49.0643V49.1149L139.396 72.6992Z" fill="#3F3D56"/>
<path opacity="0.1" d="M139.396 72.6992L117.631 77.1539L117.135 77.1033V52.2552L138.413 49.0643L139.396 72.6992Z" fill="black"/>
<path opacity="0.05" d="M138.413 49.1149L138.407 49.1212L117.135 52.2552L98.0085 50.9346L121.422 46.976L138.407 48.9569L138.413 49.0643V49.1149Z" fill="black"/>
</g>
<defs>
<clipPath id="clip0">
<rect width="300" height="222.306" fill="white"/>
</clipPath>
</defs>
</svg>
